<svg viewBox="0 0 70 80" version="1.1" xmlns="http://www.w3.org/2000/svg">
    <g stroke="none" stroke-width="1" fill="none" fill-rule="evenodd">
        <g transform="translate(-359.000000, -439.000000)" fill="#379070">
            <g transform="translate(272.000000, 105.000000)">
                <g transform="translate(87.000000, 334.000000)">
                    <g>
                        <path d="M65,30 C62.25,30 60,32.25 60,35 L60,55 C60,57.75 62.25,60 65,60 C67.75,60 70,57.75 70,55 L70,35 C70,32.25 67.75,30 65,30 L65,30 Z M5,30 C2.25,30 0,32.25 0,35 L0,55 C0,57.75 2.25,60 5,60 C7.75,60 10,57.75 10,55 L10,35 C10,32.25 7.75,30 5,30 L5,30 Z M12.5,57.5 C12.5,61.6425 15.8575,65 20,65 L20,65 L20,75 C20,77.75 22.25,80 25,80 C27.75,80 30,77.75 30,75 L30,65 L40,65 L40,75 C40,77.75 42.25,80 45,80 C47.75,80 50,77.75 50,75 L50,65 C54.1425,65 57.5,61.6425 57.5,57.5 L57.5,30 L12.5,30 L12.5,57.5 L12.5,57.5 Z"/>
                        <path d="M57.36,25 C56.6,18.135 52.75,12.2025 47.2325,8.6225 L49.735,3.62 C50.3525,2.385 49.8525,0.8825 48.6175,0.265 C47.3825,-0.3525 45.88,0.1475 45.2625,1.3825 L42.7525,6.405 L42.1,6.145 C39.8675,5.4025 37.48,5 35,5 C32.52,5 30.1325,5.4025 27.9,6.145 L27.2475,6.405 L24.7375,1.3825 C24.12,0.1475 22.6175,-0.3525 21.3825,0.265 C20.1475,0.8825 19.6475,2.385 20.265,3.62 L22.7675,8.6225 C17.25,12.205 13.4,18.135 12.64,25 L12.64,27.5 L57.5,27.5 L57.5,25 L57.36,25 L57.36,25 Z M27.5,20 C26.12,20 25,18.88 25,17.5 C25,16.12 26.1175,15.0025 27.495,15 L27.5025,15 L27.5075,15 C28.885,15.0025 30.0025,16.12 30.0025,17.5 C30.0025,18.88 28.8825,20 27.5025,20 L27.5,20 Z M42.5,20 C41.12,20 40,18.88 40,17.5 C40,16.12 41.115,15.0025 42.495,15 L42.5,15 L42.5075,15 C43.885,15.0025 45.0025,16.12 45.0025,17.5 C45.0025,18.88 43.8825,20 42.5025,20 L42.5,20 Z"/>
                    </g>
                </g>
            </g>
        </g>
    </g>
</svg>
