<svg viewBox="0 0 66 80" version="1.1" xmlns="http://www.w3.org/2000/svg">
    <g stroke="none" stroke-width="1" fill="none" fill-rule="evenodd">
        <g transform="translate(-474.000000, -439.000000)" fill="#D8D5CE">
            <g transform="translate(272.000000, 105.000000)">
                <g transform="translate(202.000000, 334.000000)">
                    <path d="M54.835,42.5075 C54.735,32.375 63.0975,27.5175 63.47,27.275 C58.77,20.3975 51.45,19.4575 48.8425,19.3475 C42.6125,18.7175 36.6875,23.015 33.525,23.015 C30.3725,23.015 25.4925,19.44 20.325,19.535 C13.535,19.635 7.2725,23.4825 3.7775,29.565 C-3.2775,41.8075 1.97,59.9425 8.8475,69.8725 C12.2075,74.7325 16.215,80.19 21.475,79.995 C26.54,79.7925 28.4575,76.7175 34.58,76.7175 C40.7025,76.7175 42.425,79.995 47.7875,79.895 C53.2375,79.7925 56.6925,74.9425 60.03,70.0675 C63.8875,64.43 65.4775,58.97 65.57,58.69 C65.45,58.635 54.94,54.61 54.835,42.5075 L54.835,42.5075 Z M44.7625,12.775 C47.555,9.3875 49.44,4.6875 48.925,0 C44.9025,0.165 40.0275,2.68 37.1425,6.0575 C34.5525,9.055 32.2875,13.84 32.895,18.435 C37.385,18.785 41.9675,16.1525 44.7625,12.775 L44.7625,12.775 Z"/>
                </g>
            </g>
        </g>
    </g>
</svg>
