<?xml version="1.0" encoding="UTF-8" standalone="no"?>
<svg width="100px" height="32px" viewBox="0 0 100 32" version="1.1" xmlns="http://www.w3.org/2000/svg" xmlns:xlink="http://www.w3.org/1999/xlink">
    <path d="M26.0667904,10.4823748 L60.6679035,10.4823748 L57.3747681,10.4823748 C54.4805195,10.4823748 52.1335807,12.8293135 52.1335807,15.7235622 C52.1335807,18.6178108 54.4805195,20.9647495 57.3747681,20.9647495 L60.6679035,20.9647495 L26.0667904,20.9647495 L32.6994434,20.9647495 C35.593692,20.9647495 37.9406308,18.6178108 37.9406308,15.7235622 C37.9406308,12.8293135 35.593692,10.4823748 32.6994434,10.4823748 L26.0667904,10.4823748 L26.0667904,10.4823748 Z M0,26.2059369 C0,23.3116883 2.34693878,20.9647495 5.24118738,20.9647495 L69.7124304,20.9647495 C72.606679,20.9647495 74.9536178,23.3116883 74.9536178,26.2059369 C74.9536178,29.1001855 72.606679,31.4471243 69.7124304,31.4471243 L5.24118738,31.4471243 C2.34693878,31.4471243 0,29.1001855 0,26.2059369 L0,26.2059369 Z M16.7903525,5.24118738 C16.7903525,2.34693878 19.1372913,0 22.0315399,0 L94.7588126,0 C97.6530612,0 100,2.34693878 100,5.24118738 C100,8.13543599 97.6530612,10.4823748 94.7588126,10.4823748 L22.0315399,10.4823748 C19.1372913,10.4823748 16.7903525,8.13543599 16.7903525,5.24118738 L16.7903525,5.24118738 Z" id="Shape" stroke="none" fill="#FFFFFF" fill-rule="evenodd"></path>
</svg>
