<svg xmlns="http://www.w3.org/2000/svg" viewBox="0 0 229.24 22.03">
    <path d="M2.82,6.82A1.31,1.31,0,0,0,2,7.09a4.2,4.2,0,0,0-.63.61,7,7,0,0,0-.45.59,0.59,0.59,0,0,1-.47.32A0.5,0.5,0,0,1,.22,8.51a2.25,2.25,0,0,1,0-.58q0-.43,0-1t0-1.09q0-.56,0-0.9t0-.57l0.82,0,1.39,0,1.7,0H4.73l0.94,0a1.92,1.92,0,0,1,.82.12,0.29,0.29,0,0,1,.17.27,1,1,0,0,1-.19.48A6.9,6.9,0,0,1,5.91,6q-0.29.55-.56,1a0.75,0.75,0,0,1-.61.46l-0.17,0,0,0a3.52,3.52,0,0,1,.3,1,20.17,20.17,0,0,0-.48,2.14Q4.19,11.8,4,13.27T3.64,16.35Q3.47,18,3,22.74,2.74,18,2.73,16.29V15.15q0-1.16,0-2.3,0-1.72.06-3.33T2.82,6.82Zm18.57,9a3.34,3.34,0,0,0,1.1-.19,5.2,5.2,0,0,0,1.06-.51,6.42,6.42,0,0,0,1-.75q0.46-.43,2.07-2.11Q25.49,14.31,25,15a10.44,10.44,0,0,1-1.09,1.36,6.07,6.07,0,0,1-1.29,1,2.71,2.71,0,0,1-1.39.42,2.26,2.26,0,0,1-1.43-.47,4.5,4.5,0,0,1-1-1.13,6.3,6.3,0,0,1-.68-1.46,18.33,18.33,0,0,1-.53-2.63q1.27,2,1.77,2.66a2.15,2.15,0,0,0,.86.77,3.76,3.76,0,0,0,.08-0.91V14.45q0-.77,0-1.43A12.33,12.33,0,0,0,20,10.55a14.59,14.59,0,0,0-.66-2.3,15.11,15.11,0,0,0-.93-2,11,11,0,0,0-1.31-1.83l6.48-.11a3,3,0,0,0-1.4-1.81A19.74,19.74,0,0,0,17.69.71,17.7,17.7,0,0,1,21.24,1a8.64,8.64,0,0,1,2.06.74,6.6,6.6,0,0,1,1.64,1.18A4.81,4.81,0,0,1,26,4.53,7.9,7.9,0,0,1,24.08,6a4,4,0,0,1-1.82.48,4.63,4.63,0,0,1-1.73-.35A7.62,7.62,0,0,1,22,8.23,5,5,0,0,1,22.3,10,15.63,15.63,0,0,1,22,12.83Q21.74,14.33,21.39,15.78Zm9.75-6.62a0.71,0.71,0,0,1,.46.15,1,1,0,0,1,.27.33A1.43,1.43,0,0,1,32,10a1.93,1.93,0,0,1,0,.37,1.76,1.76,0,0,1-.21.79,0.72,0.72,0,0,1-.69.42,0.62,0.62,0,0,1-.39-0.12,1.7,1.7,0,0,1-.28-0.27,1.13,1.13,0,0,1-.19-0.33,1,1,0,0,1-.06-0.32,1.89,1.89,0,0,1,0-.39,3.61,3.61,0,0,1,.12-0.42,1,1,0,0,1,.25-0.4A0.68,0.68,0,0,1,31.14,9.16ZM30.29,6.55h0q0.15,0.12.49,0.45a3.61,3.61,0,0,0-.86,1.07,7.12,7.12,0,0,0-.51,1.26,10,10,0,0,0-.3,1.35,8.12,8.12,0,0,0-.1,1.2,5.12,5.12,0,0,0,.4,1.93,12.43,12.43,0,0,0,1.73,2.68,4.44,4.44,0,0,1-1.55-.72,4.28,4.28,0,0,1-.73-0.85,7,7,0,0,1-.56-1,10.29,10.29,0,0,1-.42-1.11,8.54,8.54,0,0,1-.26-1.07,5.51,5.51,0,0,1-.09-0.91A16.46,16.46,0,0,1,27.62,9q0.08-.7.17-1.14A4.28,4.28,0,0,1,28,7.23,1,1,0,0,0,28,6.92a0.66,0.66,0,0,0-.09-0.37,0.63,0.63,0,0,0-.22-0.21,1.88,1.88,0,0,0-.3-0.13L26,5.76l3.23-.09H32.8l3.12,0.09a12.73,12.73,0,0,0-1.38.48l-0.34.22a1.16,1.16,0,0,0-.27.27,0.48,0.48,0,0,0-.1.27,0.41,0.41,0,0,0,.12.25,2.2,2.2,0,0,1,.29.54,5.82,5.82,0,0,1,.3,1.1,10.53,10.53,0,0,1,.14,1.91,16.88,16.88,0,0,1-.14,2.32,6.9,6.9,0,0,1-.48,1.8,4.63,4.63,0,0,1-.92,1.39,16.57,16.57,0,0,1-3.15,2,27.37,27.37,0,0,0,2-1.88,5.62,5.62,0,0,0,.58-0.84,5.24,5.24,0,0,0,.42-1,3.34,3.34,0,0,0,.17-1q0-.4,0-1t-0.09-1.24Q33,10.71,32.87,10a7.89,7.89,0,0,0-.37-1.35,5.84,5.84,0,0,0-.6-1.19,3.2,3.2,0,0,0-.8-0.86,1.57,1.57,0,0,0-.46-0.07Zm9.86,2.61a0.71,0.71,0,0,1,.46.15,1,1,0,0,1,.27.33A1.43,1.43,0,0,1,41,10a1.93,1.93,0,0,1,0,.37,1.76,1.76,0,0,1-.21.79,0.72,0.72,0,0,1-.69.42,0.62,0.62,0,0,1-.39-0.12,1.7,1.7,0,0,1-.28-0.27,1.13,1.13,0,0,1-.19-0.33,1,1,0,0,1-.06-0.32,1.89,1.89,0,0,1,0-.39,3.61,3.61,0,0,1,.12-0.42,1,1,0,0,1,.25-0.4A0.68,0.68,0,0,1,40.15,9.16ZM39.3,6.55h0Q39.46,6.68,39.8,7a3.61,3.61,0,0,0-.86,1.07,7.12,7.12,0,0,0-.51,1.26,10,10,0,0,0-.3,1.35,8.12,8.12,0,0,0-.1,1.2,5.12,5.12,0,0,0,.4,1.93,12.43,12.43,0,0,0,1.73,2.68,4.44,4.44,0,0,1-1.55-.72,4.28,4.28,0,0,1-.73-0.85,7,7,0,0,1-.56-1,10.29,10.29,0,0,1-.42-1.11,8.54,8.54,0,0,1-.26-1.07,5.51,5.51,0,0,1-.09-0.91A16.46,16.46,0,0,1,36.63,9q0.08-.7.17-1.14A4.28,4.28,0,0,1,37,7.23,1,1,0,0,0,37,6.92,0.66,0.66,0,0,0,37,6.55a0.63,0.63,0,0,0-.22-0.21,1.88,1.88,0,0,0-.3-0.13L35,5.76l3.23-.09h3.55l3.12,0.09a12.73,12.73,0,0,0-1.38.48l-0.34.22a1.16,1.16,0,0,0-.27.27,0.48,0.48,0,0,0-.1.27,0.41,0.41,0,0,0,.12.25,2.2,2.2,0,0,1,.29.54,5.82,5.82,0,0,1,.3,1.1,10.53,10.53,0,0,1,.14,1.91,16.88,16.88,0,0,1-.14,2.32,6.9,6.9,0,0,1-.48,1.8,4.63,4.63,0,0,1-.92,1.39,16.57,16.57,0,0,1-3.15,2,27.38,27.38,0,0,0,2-1.88,5.62,5.62,0,0,0,.58-0.84,5.24,5.24,0,0,0,.42-1,3.34,3.34,0,0,0,.17-1q0-.4,0-1t-0.09-1.24Q42,10.71,41.88,10a7.89,7.89,0,0,0-.37-1.35,5.84,5.84,0,0,0-.6-1.19,3.2,3.2,0,0,0-.8-0.86,1.57,1.57,0,0,0-.46-0.07Zm7.88,0.09a1.07,1.07,0,0,0,.2.17,2.53,2.53,0,0,0,.37.22,1.62,1.62,0,0,1,.49.51,2.79,2.79,0,0,0-.9.09,1,1,0,0,0-.42.41,2.78,2.78,0,0,0-.33,1,10.14,10.14,0,0,0-.12,1.78,8,8,0,0,0,.13,1.37,9.72,9.72,0,0,0,.34,1.37,8.31,8.31,0,0,0,.39,1q0.17,0.35.17,0.37a0.44,0.44,0,0,0,.31-0.3A3.14,3.14,0,0,0,48,13.88q0.1-.43.18-0.88a0.42,0.42,0,0,1,.34-0.45,0.31,0.31,0,0,1,.3.3q0.06,0.3.11,0.62T49,14.2q0,0.41,0,.74a7,7,0,0,1-.1,1.22,0.58,0.58,0,0,1-.57.58,1.25,1.25,0,0,1-.79-0.34,4.55,4.55,0,0,1-.78-0.85,9.38,9.38,0,0,1-.71-1.17,11.88,11.88,0,0,1-.6-1.36,11.26,11.26,0,0,1-.42-1.41,6,6,0,0,1-.16-1.3q0-.46,0-1a8.15,8.15,0,0,1,.6-2.42,4,4,0,0,1,.73-1.12q0.85,0,1.57,0h1l2.89-.12a1,1,0,0,1,.15.4,0.52,0.52,0,0,1-.19.34,0.5,0.5,0,0,0-.34.11,0.35,0.35,0,0,0-.13.28,2.76,2.76,0,0,0,0,.32,1.89,1.89,0,0,0,0,.42q0.09,0.4.21,0.85t0.24,1a5.25,5.25,0,0,1,.12,1.15,8.9,8.9,0,0,1-.07,1.12,5.43,5.43,0,0,1-.26,1.12,4.92,4.92,0,0,1-.49,1,6,6,0,0,1-1.68,1.34q0.74-1.13.91-1.45a3.43,3.43,0,0,0,.28-0.7A6.08,6.08,0,0,0,50.7,12a10.13,10.13,0,0,0,.06-1.23,3.87,3.87,0,0,0-.15-1,7.18,7.18,0,0,0-.39-1.08,8.12,8.12,0,0,0-.52-1,3.15,3.15,0,0,0-.54-0.67,1.48,1.48,0,0,0-.53-0.25,4.24,4.24,0,0,0-.72-0.14,4,4,0,0,0-.53,0H47.22Zm16.39,0a0.89,0.89,0,0,0-.24-0.07L63,6.5a1.59,1.59,0,0,1-.33-0.06,0.24,0.24,0,0,1-.19-0.26,0.41,0.41,0,0,1,.38-0.4,2.12,2.12,0,0,1,.53,0h0.14l1,0.05q0.62,0,1.46,0t1.42,0l0.9,0,0.38,0h0.15a0.32,0.32,0,0,1,.36.28,0.49,0.49,0,0,1-.22.48,1.66,1.66,0,0,0-.36.24,6.74,6.74,0,0,0-.62.64,4.29,4.29,0,0,0-.58.87l-0.11.46a1.84,1.84,0,0,0-.05.42q0,0.22,0,.45V9.64A0.31,0.31,0,0,1,67,10a0.48,0.48,0,0,1-.45-0.4,2.48,2.48,0,0,1-.14-0.82,2.53,2.53,0,0,1,.11-0.71,6.61,6.61,0,0,1,.24-0.68l0.14-.46a1.06,1.06,0,0,0,0-.19,0.3,0.3,0,0,0,0-.09,0.23,0.23,0,0,0-.17-0.14,2.09,2.09,0,0,0-.6-0.05,1,1,0,0,0-.84,1A6.76,6.76,0,0,0,65,8.91Q65,9.73,65,10.57q0,0.57,0,1a4.84,4.84,0,0,0,.11.74,4.51,4.51,0,0,0,.2.63,6.24,6.24,0,0,0,.33.67,12.75,12.75,0,0,0,.54,1.27l0.17,0.31A0.62,0.62,0,0,0,66.48,15a1.76,1.76,0,0,0,.21-0.43q0.09-.26.21-0.56a0.39,0.39,0,0,1,.36-0.3,0.28,0.28,0,0,1,.3.28v0.06q0,0.1,0,.21t-0.06.33a1.91,1.91,0,0,1-.08.29,1.28,1.28,0,0,1-.16.41,0.55,0.55,0,0,0-.09.32q0,0.45,0,.83a0.36,0.36,0,0,1-.4.38,0.88,0.88,0,0,1-.62-0.4,10.74,10.74,0,0,1-.65-0.9q-0.33-.5-0.64-1.06t-0.5-1q-0.21-.33-0.44-0.76t-0.43-.85q-0.2-.42-0.35-0.82A2,2,0,0,1,63,10.38a2.73,2.73,0,0,1,.12-0.84,7.83,7.83,0,0,1,.33-0.83q0.2-.39.38-0.71A1.1,1.1,0,0,0,64,7.53a1.43,1.43,0,0,0-.1-0.66A0.76,0.76,0,0,0,63.57,6.59Zm6.66-.84,1.18-.12q0.46,0,.92,0t1,0l2.23,0.21a7.74,7.74,0,0,0-2,.63,0.85,0.85,0,0,0-.3.72,2.47,2.47,0,0,0,.14.66,6.12,6.12,0,0,0,.35.87,4.2,4.2,0,0,0,.42.7,0.64,0.64,0,0,0,.28.27,0.44,0.44,0,0,0,.23-0.21A2.17,2.17,0,0,0,75,8.86a6.65,6.65,0,0,0,.23-1,11.73,11.73,0,0,0,.09-1.76A3.9,3.9,0,0,1,76,7.21a3.26,3.26,0,0,1,.13.68q0,0.25,0,.54V8.59a4.3,4.3,0,0,1,0,.66,4.83,4.83,0,0,1-.22.82q-0.17.46-.36,0.88a4.24,4.24,0,0,1-.43.75,0.66,0.66,0,0,1-.49.33A0.67,0.67,0,0,1,74,11.74a2.57,2.57,0,0,1-.36-0.62,2.84,2.84,0,0,0-.23.85,11.25,11.25,0,0,1-.63,2.13,9.83,9.83,0,0,1-1,1.83,19.19,19.19,0,0,1-2.5,2.61,30.06,30.06,0,0,0,1.87-3.08,6.86,6.86,0,0,0,.46-1.4,9.91,9.91,0,0,0,.19-1.43q0-.74,0-1.64a5.23,5.23,0,0,0-.26-1.61,13.58,13.58,0,0,0-.58-1.5q-0.32-.69-0.59-1.22A2.07,2.07,0,0,1,70.22,5.75ZM88,5.4a1.36,1.36,0,0,0-.32-0.09l-0.36,0A1.44,1.44,0,0,1,87,5.21a0.27,0.27,0,0,1-.21-0.29,0.44,0.44,0,0,1,.44-0.45,2.58,2.58,0,0,1,.63-0.06H88L89.3,4.47q0.78,0,1.82,0t1.78,0l1.13,0,0.47,0h0.18q0.4,0,.4.29a0.59,0.59,0,0,1-.27.57,2.19,2.19,0,0,0-.44.31,7.31,7.31,0,0,0-.78.81,5.49,5.49,0,0,0-.72,1.09l-0.15.59a2.28,2.28,0,0,0-.07.52,5.32,5.32,0,0,0,0,.57V9.26a0.35,0.35,0,0,1-.39.39,0.56,0.56,0,0,1-.5-0.47,3,3,0,0,1-.17-1,3.07,3.07,0,0,1,.14-0.87q0.14-.47.29-0.85t0.18-.58a1,1,0,0,0,0-.25,0.32,0.32,0,0,0,0-.12A0.38,0.38,0,0,0,92,5.31a2.33,2.33,0,0,0-.77-0.08q-0.84,0-1.12,1.32a9,9,0,0,0-.33,1.8q-0.09,1-.09,2.07,0,0.72,0,1.25a6.08,6.08,0,0,0,.14.93,5.11,5.11,0,0,0,.26.78q0.16,0.38.4,0.87a15.11,15.11,0,0,0,.68,1.59,1.37,1.37,0,0,0,.26.4A0.45,0.45,0,0,0,91.7,16,2.35,2.35,0,0,0,92,15.46l0.26-.69a0.45,0.45,0,0,1,.4-0.35,0.29,0.29,0,0,1,.31.3V14.8a1.75,1.75,0,0,1,0,.24q0,0.2-.07.4t-0.09.37a1.79,1.79,0,0,1-.21.51,0.73,0.73,0,0,0-.11.42q0,0.57,0,1a0.4,0.4,0,0,1-.43.44,1.05,1.05,0,0,1-.74-0.48,13.13,13.13,0,0,1-.81-1.11Q90,16,89.64,15.26T89,14q-0.25-.42-0.55-1T87.93,12q-0.25-.52-0.43-1a2.47,2.47,0,0,1-.18-0.83,3.39,3.39,0,0,1,.15-1,9.62,9.62,0,0,1,.41-1q0.24-.49.48-0.89a1.38,1.38,0,0,0,.23-0.61,1.78,1.78,0,0,0-.14-0.85A1,1,0,0,0,88,5.4Zm7.59,3a6.89,6.89,0,0,1,1.08-1.53,3.86,3.86,0,0,1,.94-0.62,5.75,5.75,0,0,1,1.09-.39,4.75,4.75,0,0,1,1.15-.14,6.13,6.13,0,0,1,1.3.14,4,4,0,0,1,1.13.42,2.51,2.51,0,0,1,.81.72,2,2,0,0,1,.31,1.18q-1,.22-1.76.44a5.75,5.75,0,0,0-1.31.54,2.62,2.62,0,0,0-.89.83,2.37,2.37,0,0,0-.34,1.32q0,0.63,0,1.4t0.12,1.57q0.08,0.8.21,1.55a14.39,14.39,0,0,0,.63,2.21,6.51,6.51,0,0,1-1.28-1.51Q98.6,16,98.37,15.39t-0.42-1.32q-0.19-.7-0.33-1.36t-0.23-1.2a5.76,5.76,0,0,1-.09-0.88,1.77,1.77,0,0,1,.17-0.81,1.83,1.83,0,0,1,.44-0.57,2.73,2.73,0,0,1,.61-0.4l0.69-.32,1-.53,0.51-.28A5.4,5.4,0,0,0,100,7.37a3.29,3.29,0,0,0-2-.17,3.57,3.57,0,0,0-.61.2,4,4,0,0,0-.5.26Zm8.38,0a6.89,6.89,0,0,1,1.08-1.53A3.86,3.86,0,0,1,106,6.26a5.75,5.75,0,0,1,1.09-.39,4.75,4.75,0,0,1,1.15-.14,6.13,6.13,0,0,1,1.3.14,4,4,0,0,1,1.13.42,2.51,2.51,0,0,1,.81.72,2,2,0,0,1,.31,1.18q-1,.22-1.76.44a5.75,5.75,0,0,0-1.31.54,2.62,2.62,0,0,0-.89.83,2.37,2.37,0,0,0-.34,1.32q0,0.63,0,1.4t0.12,1.57q0.08,0.8.21,1.55a14.39,14.39,0,0,0,.63,2.21,6.51,6.51,0,0,1-1.28-1.51Q107,16,106.74,15.39t-0.42-1.32q-0.19-.7-0.33-1.36t-0.23-1.2a5.76,5.76,0,0,1-.09-0.88,1.77,1.77,0,0,1,.17-0.81,1.83,1.83,0,0,1,.44-0.57,2.73,2.73,0,0,1,.61-0.4l0.69-.32,1-.53,0.51-.28a5.4,5.4,0,0,0-.77-0.36,3.29,3.29,0,0,0-2-.17,3.57,3.57,0,0,0-.61.2,4,4,0,0,0-.5.26Zm13,0.75a0.71,0.71,0,0,1,.46.15,1,1,0,0,1,.27.33,1.43,1.43,0,0,1,.13.38,1.92,1.92,0,0,1,0,.37,1.76,1.76,0,0,1-.21.79,0.72,0.72,0,0,1-.69.42,0.62,0.62,0,0,1-.39-0.12,1.7,1.7,0,0,1-.28-0.27,1.13,1.13,0,0,1-.19-0.33,1,1,0,0,1-.06-0.32,1.89,1.89,0,0,1,0-.39,3.61,3.61,0,0,1,.12-0.42,1,1,0,0,1,.25-0.4A0.68,0.68,0,0,1,117,9.16Zm-0.85-2.61h0q0.15,0.12.49,0.45a3.61,3.61,0,0,0-.86,1.07,7.12,7.12,0,0,0-.51,1.26,10,10,0,0,0-.3,1.35,8.12,8.12,0,0,0-.1,1.2,5.12,5.12,0,0,0,.4,1.93A12.43,12.43,0,0,0,117,16.51a4.44,4.44,0,0,1-1.55-.72,4.28,4.28,0,0,1-.73-0.85,7,7,0,0,1-.56-1,10.29,10.29,0,0,1-.42-1.11,8.53,8.53,0,0,1-.26-1.07,5.51,5.51,0,0,1-.09-0.91A16.47,16.47,0,0,1,113.46,9q0.08-.7.17-1.14a4.27,4.27,0,0,1,.17-0.66,1,1,0,0,0,.08-0.31,0.66,0.66,0,0,0-.09-0.37,0.63,0.63,0,0,0-.22-0.21,1.88,1.88,0,0,0-.3-0.13l-1.41-.45,3.23-.09h3.55l3.12,0.09a12.73,12.73,0,0,0-1.38.48L120,6.47a1.16,1.16,0,0,0-.27.27,0.48,0.48,0,0,0-.1.27,0.41,0.41,0,0,0,.12.25,2.2,2.2,0,0,1,.29.54,5.82,5.82,0,0,1,.3,1.1,10.53,10.53,0,0,1,.14,1.91,16.88,16.88,0,0,1-.14,2.32,6.9,6.9,0,0,1-.48,1.8,4.63,4.63,0,0,1-.92,1.39,16.57,16.57,0,0,1-3.15,2,27.38,27.38,0,0,0,2-1.88,5.62,5.62,0,0,0,.58-0.84,5.24,5.24,0,0,0,.42-1,3.34,3.34,0,0,0,.17-1q0-.4,0-1t-0.09-1.24q-0.07-.66-0.2-1.37a7.9,7.9,0,0,0-.37-1.35,5.84,5.84,0,0,0-.6-1.19,3.2,3.2,0,0,0-.8-0.86,1.57,1.57,0,0,0-.46-0.07Zm9.42,7.52a7.21,7.21,0,0,0,.26-0.73q0.18-.55.29-1.09t0.18-1a7.82,7.82,0,0,0,.06-0.89,3.92,3.92,0,0,0-.15-1,7.51,7.51,0,0,0-.37-1.07,4.17,4.17,0,0,0-.44-0.81,0.73,0.73,0,0,0-.3-0.3,0.71,0.71,0,0,0-.37.32,4.46,4.46,0,0,0-.49.83,7.32,7.32,0,0,0-.41,1.07,3.46,3.46,0,0,0-.17,1,3.17,3.17,0,0,0,.21,1.07,7.84,7.84,0,0,0,.51,1.12,6,6,0,0,0,.7,1A6.22,6.22,0,0,0,125.55,14.07Zm4.32-10a3.12,3.12,0,0,1,.51,1.37q0,0.11,0,.23a4.22,4.22,0,0,1-.12,1,4,4,0,0,1-.52,1.18A4.41,4.41,0,0,1,128,9.1q0.59-.74.67-0.89a2,2,0,0,0,.15-0.35,3,3,0,0,0,.1-0.42,1,1,0,0,0,0-.2,0.88,0.88,0,0,0,0-.16,0.79,0.79,0,0,0-.41-0.3A1.57,1.57,0,0,0,128,6.72a0.8,0.8,0,0,0-.54.21,0.75,0.75,0,0,0-.24.6,3.84,3.84,0,0,0,.08.84,1.08,1.08,0,0,0,.3.56l0.71,0.84q-0.13.86-.36,1.8t-0.56,1.89a18.77,18.77,0,0,1-.71,1.8,9,9,0,0,1-.95,1.6,5,5,0,0,0-1-.1q-0.59,0-5.11.54,4.37-1,4.78-1.38a3.92,3.92,0,0,0,.64-0.83,9,9,0,0,1-.84-0.7,10.62,10.62,0,0,1-1-1.11,7.44,7.44,0,0,1-.84-1.26,2.72,2.72,0,0,1-.35-1.26,2.2,2.2,0,0,1,.18-0.74l0.38-1q0.2-.52.37-1a2.87,2.87,0,0,0,.17-0.9A0.72,0.72,0,0,0,123,6.75a1,1,0,0,0-.24-0.28,1.32,1.32,0,0,0-.35-0.21q-0.21-.08-2.63-0.64l4,0.21,1.48,0h1.43l1.52-.06A1.63,1.63,0,0,0,129,5.32,6.48,6.48,0,0,0,129.87,4.12Zm13.27,3.6a1,1,0,0,0-.57.21,3.21,3.21,0,0,0-.49.47,4.74,4.74,0,0,0-.35.47,0.56,0.56,0,0,1-.42.27A1.12,1.12,0,0,1,141,9.09a3.52,3.52,0,0,1,0-.52q0-.34,0-0.77t0-.88q0-.45,0-0.72t0-.48l0.71,0,1.12,0,1.36,0h0.41l0.75,0a1.31,1.31,0,0,1,.7.12,0.24,0.24,0,0,1,.14.23,0.74,0.74,0,0,1-.15.38Q146,6.7,145.7,7l-0.45.81a0.63,0.63,0,0,1-.53.38h0a2.55,2.55,0,0,1,.22.74q-0.21.72-.39,1.71t-0.33,2.17Q144,14,143.89,15.32t-0.57,5.75q-0.24-4.42-.25-5.8V14.35q0-.93,0-1.85,0-1.37,0-2.66T143.14,7.73Zm4.11-2,1.18-.12q0.46,0,.92,0t1,0l2.23,0.21a7.74,7.74,0,0,0-2,.63,0.85,0.85,0,0,0-.3.72,2.47,2.47,0,0,0,.14.66,6.12,6.12,0,0,0,.35.87,4.2,4.2,0,0,0,.42.7,0.64,0.64,0,0,0,.28.27,0.44,0.44,0,0,0,.23-0.21A2.17,2.17,0,0,0,152,8.86a6.65,6.65,0,0,0,.23-1,11.73,11.73,0,0,0,.09-1.76A3.9,3.9,0,0,1,153,7.21a3.26,3.26,0,0,1,.13.68q0,0.25,0,.54V8.59a4.3,4.3,0,0,1,0,.66,4.83,4.83,0,0,1-.22.82q-0.17.46-.36,0.88a4.24,4.24,0,0,1-.43.75,0.66,0.66,0,0,1-.49.33,0.67,0.67,0,0,1-.55-0.28,2.57,2.57,0,0,1-.36-0.62,2.84,2.84,0,0,0-.23.85,11.25,11.25,0,0,1-.63,2.13,9.83,9.83,0,0,1-1,1.83,19.19,19.19,0,0,1-2.5,2.61,30.06,30.06,0,0,0,1.87-3.08,6.86,6.86,0,0,0,.46-1.4,9.91,9.91,0,0,0,.19-1.43q0-.74,0-1.64a5.23,5.23,0,0,0-.26-1.61,13.58,13.58,0,0,0-.58-1.5q-0.32-.69-0.59-1.22A2.07,2.07,0,0,1,147.25,5.75Zm20,9.06a2.53,2.53,0,0,0,.81-0.15,4,4,0,0,0,.84-0.4,4.9,4.9,0,0,0,.77-0.6q0.36-.34,1.83-1.86-1,1.88-1.37,2.47a8.37,8.37,0,0,1-.88,1.09,5,5,0,0,1-1,.83,2.21,2.21,0,0,1-1.14.34,1.87,1.87,0,0,1-1.17-.38,3.5,3.5,0,0,1-.83-0.91,5.18,5.18,0,0,1-.55-1.18,16.84,16.84,0,0,1-.46-2.34q1.14,1.82,1.54,2.33a1.66,1.66,0,0,0,.62.59,3.09,3.09,0,0,0,0-.67v-0.2q0-.62,0-1.14a9.73,9.73,0,0,0-.2-2,12.22,12.22,0,0,0-.53-1.84,10.9,10.9,0,0,0-.74-1.59,9.86,9.86,0,0,0-1.1-1.51l5.22-.09a2.39,2.39,0,0,0-1.1-1.39,17,17,0,0,0-3.78-1.5A16,16,0,0,1,167,3a7,7,0,0,1,1.66.6,5.37,5.37,0,0,1,1.33,1,3.79,3.79,0,0,1,.87,1.36,6.3,6.3,0,0,1-1.57,1.19,3.28,3.28,0,0,1-1.48.39,2.08,2.08,0,0,1-1-.2,7.28,7.28,0,0,1,.88,1.55,4.05,4.05,0,0,1,.22,1.4,12.65,12.65,0,0,1-.22,2.29Q167.48,13.69,167.2,14.82Zm11-6.13q0.09-.79.1-1.3V7.31a1.69,1.69,0,0,0,0-.51h-1.4a1.09,1.09,0,0,0-.19.35,1.72,1.72,0,0,0-.1.63,1.36,1.36,0,0,0,.17.56,3.28,3.28,0,0,0,.44.67,3.05,3.05,0,0,0,.6.55L178,9.74Zm-0.66,3.83-0.12.27a19.08,19.08,0,0,1-1,1.93,11.3,11.3,0,0,1-1.65,2.1q-0.68,0-1.34,0t-4.52.47q4-.93,4.47-1.15a2.6,2.6,0,0,0,.74-0.44,4.77,4.77,0,0,0,.8-1.08,10.26,10.26,0,0,0,.65-1.39,10.11,10.11,0,0,0,.43-1.46,6.1,6.1,0,0,0,.16-1.27,4.84,4.84,0,0,0-.32-1.89A4,4,0,0,0,175,7.4a4,4,0,0,0-1.09-.8q-0.6-.29-2.13-0.88h5.66a2,2,0,0,0,.48-0.18l0.51-.27L178.88,5a0.88,0.88,0,0,1,.43-0.13,0.52,0.52,0,0,1,.49.59q0,0.11,0,.22a6.11,6.11,0,0,1-.44,1.55l0,0.23a11.68,11.68,0,0,1-1.17,5.17l-0.8.56ZM180.76,6q0-.22.57-0.27t1.3-.06h1.53l1.53,0,1.17,0,0.69,0,0.1,10-0.57-2.35a3,3,0,0,0-.15-0.51,3.84,3.84,0,0,0-.29-0.6,1.42,1.42,0,0,0-.42-0.46,1,1,0,0,0-.35-0.12l-0.51-.07-0.58,0h-0.52q-0.68,0-1.18,0a1.13,1.13,0,0,0-.73.29,1.07,1.07,0,0,0-.31.56,3.57,3.57,0,0,0-.07.76,3.53,3.53,0,0,0,0,.44q0,0.26.09,0.53a4.17,4.17,0,0,0,.14.5,1.31,1.31,0,0,0,.19.37,2.08,2.08,0,0,0,.72.63,3.16,3.16,0,0,0,1.36.21q1.26,0,1.86,0h0.11q0.72,0,.72.37t-0.54.31q-0.54,0-1.21,0h-1.41l-1.41,0-1.07,0-0.67,0-0.11-10a18.56,18.56,0,0,0,.86,2.91,3.42,3.42,0,0,0,.43.59,1.22,1.22,0,0,0,.38.22,1.43,1.43,0,0,0,.41.08h0.52l0.63,0q0.8,0,1.32,0a1.53,1.53,0,0,0,.78-0.24,0.8,0.8,0,0,0,.3-0.54,6.62,6.62,0,0,0,0-.83q0-.36,0-0.83a1.12,1.12,0,0,0-.32-0.73,2.45,2.45,0,0,0-1-.55,5.52,5.52,0,0,0-1.37-.14l-1.05,0h-0.89a2.69,2.69,0,0,1-.74-0.09A0.39,0.39,0,0,1,180.76,6Zm20.12-.48h0a1.27,1.27,0,0,0,.29.26,4.53,4.53,0,0,0,.45.27,2.08,2.08,0,0,1,.58.55,3.22,3.22,0,0,0-1.08.12,1.26,1.26,0,0,0-.55.53,3.74,3.74,0,0,0-.42,1.23A12.17,12.17,0,0,0,200,10.7a9.77,9.77,0,0,0,.17,1.72,13,13,0,0,0,.42,1.72,10.68,10.68,0,0,0,.49,1.27,2.23,2.23,0,0,0,.26.48,0.56,0.56,0,0,0,.43-0.39,4.25,4.25,0,0,0,.33-0.93q0.13-.54.22-1.08t0.38-.54a0.35,0.35,0,0,1,.32.35q0.07,0.35.14,0.75T203.26,15q0,0.51,0,.92a8.41,8.41,0,0,1-.13,1.49,0.69,0.69,0,0,1-.65.7,1.52,1.52,0,0,1-.95-0.41,5.45,5.45,0,0,1-1-1.05,12.11,12.11,0,0,1-.88-1.46,14.41,14.41,0,0,1-.74-1.69,14.22,14.22,0,0,1-.52-1.75,7.42,7.42,0,0,1-.2-1.62q0-.58.06-1.3a10.49,10.49,0,0,1,.25-1.5,9.36,9.36,0,0,1,.5-1.51A5,5,0,0,1,200,4.4q1,0.06,1.93.06l1.2,0,3.55-.15a1,1,0,0,1,.19.45,0.56,0.56,0,0,1-.22.38,0.61,0.61,0,0,0-.42.16,0.49,0.49,0,0,0-.18.38,2.83,2.83,0,0,0,0,.4,2.21,2.21,0,0,0,.07.54q0.1,0.52.25,1.07t0.3,1.21a6.67,6.67,0,0,1,.14,1.42,11.41,11.41,0,0,1-.09,1.4,6.8,6.8,0,0,1-.32,1.39,5.81,5.81,0,0,1-.61,1.25,6.76,6.76,0,0,1-1.86,1.54q0.78-1.24,1-1.64a4.06,4.06,0,0,0,.35-0.88,8.25,8.25,0,0,0,.21-1.12,12.28,12.28,0,0,0,.08-1.55,4.71,4.71,0,0,0-.2-1.25,9.94,9.94,0,0,0-.49-1.37,9.51,9.51,0,0,0-.65-1.23A4,4,0,0,0,203.5,6a1.71,1.71,0,0,0-.68-0.32,7,7,0,0,0-.89-0.18,5.43,5.43,0,0,0-.68,0h-0.12a0.28,0.28,0,0,0-.17,0l-0.07,0h0Zm6.91,0.26L209,5.63q0.46,0,.92,0t1,0l2.23,0.21a7.74,7.74,0,0,0-2,.63,0.85,0.85,0,0,0-.3.72,2.47,2.47,0,0,0,.14.66,6.12,6.12,0,0,0,.35.87,4.2,4.2,0,0,0,.42.7,0.64,0.64,0,0,0,.28.27,0.44,0.44,0,0,0,.23-0.21,2.17,2.17,0,0,0,.29-0.62,6.65,6.65,0,0,0,.23-1,11.73,11.73,0,0,0,.09-1.76,3.9,3.9,0,0,1,.72,1.06,3.26,3.26,0,0,1,.13.68q0,0.25,0,.54V8.59a4.3,4.3,0,0,1,0,.66,4.83,4.83,0,0,1-.22.82q-0.17.46-.36,0.88a4.24,4.24,0,0,1-.43.75,0.66,0.66,0,0,1-.49.33,0.67,0.67,0,0,1-.55-0.28,2.57,2.57,0,0,1-.36-0.62A2.84,2.84,0,0,0,211,12a11.24,11.24,0,0,1-.63,2.13,9.83,9.83,0,0,1-1,1.83,19.19,19.19,0,0,1-2.5,2.61,30.06,30.06,0,0,0,1.87-3.08,6.86,6.86,0,0,0,.46-1.4,9.91,9.91,0,0,0,.19-1.43q0-.74,0-1.64a5.23,5.23,0,0,0-.26-1.61,13.58,13.58,0,0,0-.58-1.5q-0.32-.69-0.59-1.22A2.07,2.07,0,0,1,207.79,5.75ZM214.67,6q0-.22.57-0.27t1.3-.06h1.53l1.53,0,1.17,0,0.69,0,0.1,10L221,13.35a3,3,0,0,0-.15-0.51,3.84,3.84,0,0,0-.29-0.6,1.42,1.42,0,0,0-.42-0.46,1,1,0,0,0-.35-0.12l-0.51-.07-0.58,0h-0.52q-0.68,0-1.18,0a1.13,1.13,0,0,0-.73.29,1.07,1.07,0,0,0-.31.56,3.57,3.57,0,0,0-.07.76,3.53,3.53,0,0,0,0,.44q0,0.26.09,0.53a4.17,4.17,0,0,0,.14.5,1.31,1.31,0,0,0,.19.37,2.08,2.08,0,0,0,.72.63,3.16,3.16,0,0,0,1.36.21q1.26,0,1.86,0h0.11q0.72,0,.72.37t-0.54.31q-0.54,0-1.21,0H218l-1.41,0-1.07,0-0.67,0-0.11-10a18.56,18.56,0,0,0,.86,2.91,3.42,3.42,0,0,0,.43.59,1.22,1.22,0,0,0,.38.22,1.43,1.43,0,0,0,.41.08h0.52l0.63,0q0.8,0,1.32,0a1.53,1.53,0,0,0,.78-0.24,0.8,0.8,0,0,0,.3-0.54,6.62,6.62,0,0,0,0-.83q0-.36,0-0.83A1.12,1.12,0,0,0,220,7.12a2.45,2.45,0,0,0-1-.55,5.52,5.52,0,0,0-1.37-.14l-1.05,0h-0.89A2.69,2.69,0,0,1,215,6.36,0.39,0.39,0,0,1,214.67,6Zm7.84,0q0-.22.57-0.27t1.3-.06h1.53l1.53,0,1.17,0,0.69,0,0.1,10-0.57-2.35a3,3,0,0,0-.15-0.51,3.84,3.84,0,0,0-.29-0.6,1.42,1.42,0,0,0-.42-0.46,1,1,0,0,0-.35-0.12l-0.51-.07-0.58,0H226q-0.68,0-1.18,0a1.13,1.13,0,0,0-.73.29,1.07,1.07,0,0,0-.31.56,3.57,3.57,0,0,0-.07.76,3.53,3.53,0,0,0,0,.44q0,0.26.09,0.53a4.17,4.17,0,0,0,.14.5,1.31,1.31,0,0,0,.19.37,2.08,2.08,0,0,0,.72.63,3.16,3.16,0,0,0,1.36.21q1.26,0,1.86,0h0.11q0.72,0,.72.37t-0.54.31q-0.54,0-1.21,0h-1.41l-1.41,0-1.07,0-0.67,0-0.11-10a18.56,18.56,0,0,0,.86,2.91,3.42,3.42,0,0,0,.43.59,1.22,1.22,0,0,0,.38.22,1.43,1.43,0,0,0,.41.08h0.52l0.63,0q0.8,0,1.32,0a1.53,1.53,0,0,0,.78-0.24,0.8,0.8,0,0,0,.3-0.54,6.62,6.62,0,0,0,0-.83q0-.36,0-0.83a1.12,1.12,0,0,0-.32-0.73,2.45,2.45,0,0,0-1-.55,5.52,5.52,0,0,0-1.37-.14l-1.05,0h-0.89a2.69,2.69,0,0,1-.74-0.09A0.39,0.39,0,0,1,222.51,6Z" transform="translate(-0.17 -0.71)" fill="#666"/>
</svg>
