<svg version="1.1" xmlns="http://www.w3.org/2000/svg" width="32" height="32" viewBox="0 0 32 32">
    <path d="M17.119 2.134h-2.222v2.133h2.222v-2.133zM19.341 7.467h-6.665c-0.623 0-1.12-0.48-1.12-1.067v-2.134c0-0.587 0.498-1.067 1.12-1.067h0.053c-0.036-0.177-0.053-0.355-0.053-0.533 0-1.476 1.475-2.667 3.324-2.667s3.341 1.191 3.341 2.667c0 0.178-0.036 0.356-0.072 0.533h0.072c0.606 0 1.102 0.48 1.102 1.067v2.133c0 0.587-0.497 1.067-1.102 1.067zM27.11 32h-22.219c-1.226 0-2.222-0.96-2.222-2.134v-23.466c0-1.173 0.996-2.133 2.222-2.133h5.564v2.667c0 0.889 0.409 1.6 0.925 1.6h9.243c0.517 0 0.925-0.71 0.925-1.6v-2.667h5.564c1.226 0 2.222 0.96 2.222 2.134v23.466c-0 1.174-0.997 2.134-2.223 2.134z"/>
</svg>
