<svg width="10" height="10" xmlns="http://www.w3.org/2000/svg">
    <path d="M5 0C2.239 0 0 2.295 0 5.127 0 7.392 1.433 9.313 3.42 9.99c.25.048.341-.111.341-.247l-.007-.954c-1.39.31-1.684-.605-1.684-.605-.228-.592-.555-.75-.555-.75-.454-.318.034-.312.034-.312.502.036.766.528.766.528.446.784 1.17.558 1.455.427.045-.332.175-.558.318-.686-1.11-.13-2.278-.57-2.278-2.534 0-.56.195-1.017.515-1.376-.052-.129-.223-.65.048-1.356 0 0 .42-.138 1.376.525.398-.114.826-.17 1.251-.173.425.002.853.06 1.253.173.954-.663 1.373-.525 1.373-.525.272.706.101 1.227.05 1.356.32.36.514.817.514 1.376 0 1.97-1.17 2.403-2.283 2.53.18.16.339.471.339.95 0 .686-.006 1.238-.006 1.406 0 .137.09.297.343.247C8.57 9.31 10 7.39 10 5.127 10 2.295 7.761 0 5 0z" />
</svg>
