<?xml version="1.0" encoding="utf-8"?>
<!-- Generator: Adobe Illustrator 18.1.1, SVG Export Plug-In . SVG Version: 6.00 Build 0)  -->
<svg version="1.1" id="Layer_1" xmlns="http://www.w3.org/2000/svg" xmlns:xlink="http://www.w3.org/1999/xlink" x="0px" y="0px"
	 viewBox="0 0 100 100" enable-background="new 0 0 100 100" xml:space="preserve">
<path d="M94.9,47.9c0-0.2,0-0.4,0-0.7c0-0.5-0.1-0.9-0.1-1.4c0-0.2,0-0.5-0.1-0.7c-0.1-0.6-0.1-1.1-0.2-1.7
	c-0.1-0.4-0.1-0.9-0.2-1.3c0-0.1,0-0.3-0.1-0.4c-2.6-14-11.6-25.8-23.9-32l0,0h-0.1c-3-1.5-6.3-2.7-9.7-3.5h-0.1
	c-0.7-0.2-1.5-0.3-2.2-0.5c-0.2,0-0.3-0.1-0.5-0.1c-0.6-0.1-1.3-0.2-1.9-0.3c-0.2,0-0.4-0.1-0.7-0.1c-0.6-0.1-1.2-0.1-1.9-0.2
	c-0.2,0-0.4,0-0.7,0c-0.8,0-1.7-0.1-2.5-0.1C25.1,4.9,5,25,5,49.9s20.1,45,45,45s45-20.1,45-45C95,49.2,95,48.5,94.9,47.9z
	 M17.4,72.2l-2.3-3.6C15,68.5,15,68.3,15,68.2v-1.3c0-0.1,0-0.3-0.1-0.4l-1.2-1.9c-0.4-0.6-1.2-0.4-1.4,0.2l-0.5,1.9h-0.3
	c-0.9-2.1-1.6-4.2-2.2-6.4l2.9,1.7c0.2,0.1,0.5,0.1,0.7,0l1-0.5c0.3-0.2,0.7-0.1,0.9,0.1l1.7,1.8c0.2,0.2,0.6,0.3,0.9,0.1l0.7-0.4
	l-2-3.7c-0.1-0.1-0.2-0.2-0.3-0.3l-4.6-2.9c-0.4-0.2-0.9-0.1-1.1,0.3L10,56.7c-0.1,0.3-0.4,0.4-0.7,0.4H8.8c-0.1,0-0.1,0-0.2,0
	C8.2,54.7,8,52.3,8,49.9c0-12.7,5.6-24,14.5-31.7h2.1c0.1,0,0.2,0,0.3,0.1l1.3,0.6c0.2,0.1,0.4,0.4,0.4,0.6L26.2,26
	c0,0.1,0,0.2-0.1,0.3l-2.8,4.8c-0.1,0.2-0.1,0.4,0,0.6l1.6,3.1c0,0.1,0.1,0.2,0.1,0.3v2.1c0,0.1,0,0.2,0.1,0.3l2.2,3.9l0.9-0.6
	l-1.7-3.2l0.5-0.3l2.4,3.7c0.1,0.1,0.1,0.2,0.1,0.4v2c0,0.2,0.1,0.5,0.3,0.6l3.1,1.8c0.1,0.1,0.2,0.1,0.3,0.1h2.1
	c0.2,0,0.4,0.1,0.5,0.3l0.7,1c0.1,0.2,0.3,0.3,0.5,0.3h1.3c0.1,0,0.1,0,0.2,0l0.6,0.2c0.2,0.1,0.4,0.2,0.4,0.4l0.5,1.5
	c0.1,0.2,0.2,0.3,0.3,0.4l3.6,1.8c0.2,0.1,0.4,0.3,0.4,0.6v1c0,0.1,0,0.3-0.1,0.4l-1.4,2c-0.1,0.1-0.1,0.3-0.1,0.4v3.5
	c0,0.1,0,0.2,0.1,0.3l3,5.5c0,0.1,0.1,0.1,0.2,0.2l3.5,3c0.2,0.1,0.2,0.3,0.2,0.5L49.6,72c0,0.1,0,0.3,0.1,0.4l0.6,0.9
	c0.1,0.1,0.1,0.2,0.1,0.4l0.2,7.9c0,0.1,0.1,0.3,0.1,0.5l1.2,3.7c0,0.1,0,0.1,0.1,0.2l2.1,3.4c0.1,0.2,0.3,0.3,0.6,0.3h0.8
	c0.2,0,0.3,0.1,0.5,0.2l0.5,0.5c0.1,0.1,0.3,0.2,0.5,0.2h2.5l-2.4-1.8c-0.2-0.1-0.3-0.3-0.3-0.6v-2.8c0-0.1,6.3-11.6,7.5-13.8
	c0.1-0.2,0.3-0.3,0.6-0.3H66c0.3,0,0.5-0.2,0.6-0.4l1.7-3.8c0-0.1,0.1-0.2,0.1-0.3v-2.7c0-0.1,0-0.2,0.1-0.3l1.2-2
	c0.1-0.1,0.1-0.3,0.1-0.5l-0.3-1.2c-0.2-0.9-0.9-1.7-1.8-1.9l-5.4-2.3c-0.1,0-0.2-0.1-0.3-0.2l-1.3-1.6L59.4,52
	c-0.1-0.2-0.3-0.3-0.5-0.3H57c-0.2,0-0.4-0.1-0.5-0.2l-1.8-2.2c-0.1-0.2-0.3-0.2-0.5-0.2L46.9,49c-0.2,0-0.4,0.1-0.6,0.2l-1,0.8
	c-0.2,0.2-0.5,0.2-0.7,0.1L42.2,49c-0.2-0.1-0.4-0.3-0.4-0.6v-2c0-0.4-0.3-0.6-0.7-0.6h-1.9l-0.3-0.6c-0.1-0.2-0.2-0.3-0.4-0.3
	l-2.1-0.5c-0.1,0-0.2-0.1-0.2-0.1l-1.3-0.9c-0.2-0.2-0.3-0.4-0.3-0.7l1.2-4.5c0.1-0.2,0.2-0.4,0.5-0.5l4.9-0.9c0.1,0,0.2,0,0.3,0
	l1.5,0.7c0.2,0.1,0.3,0.2,0.4,0.4l0.4,1.6c0.1,0.2,0.3,0.4,0.5,0.3l0.5-0.1c0.2-0.1,0.3-0.3,0.3-0.5l-0.2-2.4c0-0.3,0.1-0.5,0.3-0.6
	l3.4-2.1c0.2-0.1,0.3-0.3,0.3-0.6v-1c0-0.2,0.1-0.4,0.3-0.5l5.5-3.9C54.8,28,54.9,28,55,28l4-0.6v-1h-0.7c-0.4,0-0.7-0.3-0.7-0.7
	l0.1-0.9c0-0.3,0.3-0.6,0.6-0.6h0.9c0.4,0,0.7,0.3,0.7,0.6v0.9c0,0.4,0.3,0.6,0.7,0.6H63c0.4,0,0.7-0.3,0.6-0.7l-0.2-4.1
	c0-0.4-0.3-0.6-0.7-0.6h-1.3c-0.2,0-0.4-0.1-0.5-0.3L58.1,17c-0.1-0.2-0.3-0.2-0.5-0.3h-1.7c-0.3,0-0.5,0.2-0.6,0.4l-1.1,2.6
	c0,0.1-0.1,0.2-0.2,0.3l-3,2.7c-0.3,0.2-0.7,0.2-0.9,0l-2.8-3c-0.3-0.3-0.2-0.8,0.1-1l3.1-2.2c0.1-0.1,0.3-0.1,0.4-0.1h1.6
	c0,0,0,0,0.1,0l2.9-0.2l0.1-0.8c0-0.1,0.1-0.2,0.1-0.3l1.5-2.1c0.1-0.1,0.2-0.2,0.4-0.3l0.8-0.2c0.2,0,0.4,0,0.6,0.1l0.6,0.5
	c0.3,0.3,0.3,0.8,0,1l-0.9,0.7c-0.3,0.2-0.3,0.7,0,1l1.6,1.5c0.2,0.2,0.6,0.3,0.9,0l1-0.8c0.1-0.1,0.2-0.3,0.2-0.5v-0.7
	c0-0.4,0.3-0.7,0.7-0.7h1.5v-0.7l-2.4-2.3c-0.1-0.1-0.3-0.2-0.5-0.2h-1.9v-0.5l2-1.3c2.8,0.8,5.6,1.9,8.1,3.3
	c-0.1,0.1-0.1,0.1-0.2,0.2L69,13.4c-0.2,0.1-0.4,0.4-0.4,0.6l0.1,2.6c0,0.3,0.2,0.5,0.4,0.6l2.2,0.8c0.3,0.1,0.6,0,0.8-0.2l1.7-2.5
	c5.1,3.5,9.3,8.1,12.4,13.4l-0.5,0.7c-0.1,0.1-0.1,0.3-0.1,0.4v2.3c0,0.4,0.3,0.8,0.8,0.8h1.4v0.8c0,0.3-0.2,0.6-0.4,0.7l-2.3,1
	c-0.1,0.1-0.2,0.1-0.3,0.2l-4.4,5.8c-0.1,0.1-0.1,0.3-0.1,0.4v5.8c0,0.2,0.1,0.4,0.2,0.5l4.3,4.9c0.1,0.2,0.3,0.3,0.6,0.3h4.8
	c0.1,0,0.2,0,0.3-0.1l1.3-0.7c-1.4,22-19.6,39.4-41.9,39.4c-13.5,0-25.4-6.3-33.1-16.2l0.2-0.1c0.2-0.1,0.4-0.4,0.4-0.6v-2.4
	C17.5,72.5,17.5,72.3,17.4,72.2z M50,7.9c3.3,0,6.5,0.4,9.6,1.1l-0.2,0.4c-0.1,0.2-0.4,0.3-0.6,0.3l-2.1-0.2c-0.4,0-0.8,0.3-0.7,0.7
	l0.1,1.2h-1L55,10.7l-4.9,0.1v1.1l0.9-0.1v1.3c0,0.4-0.3,0.7-0.6,0.7h-2.2v-0.5l0.9-0.3L49,11.4c0-0.3-0.3-0.6-0.7-0.6h-2.7
	c-0.1,0-0.2,0-0.4-0.1l-1.3-0.8c-0.2-0.1-0.4-0.1-0.6-0.1l-3,1l0.3,0.6c0.1,0.2,0.3,0.4,0.6,0.4h1.5l-0.1,0.5L36,12.6l-4.6-0.4
	C37,9.5,43.3,7.9,50,7.9z"/>
</svg>
