<?xml version="1.0" standalone="no"?>
<!DOCTYPE svg PUBLIC "-//W3C//DTD SVG 1.1//EN" "http://www.w3.org/Graphics/SVG/1.1/DTD/svg11.dtd">
<svg id="Untitled-%u0421%u0442%u0440%u0430%u043D%u0438%u0446%u0430%201" viewBox="0 0 32 32" style="background-color:#ffffff00" version="1.1"
	xmlns="http://www.w3.org/2000/svg" xmlns:xlink="http://www.w3.org/1999/xlink" xml:space="preserve"
	x="0px" y="0px" width="32px" height="32px"
>
	<g id="%u0421%u043B%u043E%u0439%201">
		<path id="locked" d="M 24.9997 31.9998 L 6.9997 31.9998 C 5.3428 31.9998 3.9997 30.6566 3.9997 28.9998 L 3.9997 17.9998 C 3.9997 16.343 5.3428 14.9998 6.9997 14.9998 L 7.9996 14.9998 L 7.9996 6.9999 C 7.9996 3.1338 11.5814 -0.0002 15.9996 -0.0002 C 20.418 -0.0002 23.9996 3.1338 23.9996 6.9999 L 23.9996 14.9998 L 24.9997 14.9998 C 26.6566 14.9998 27.9997 16.343 27.9997 17.9998 L 27.9997 28.9998 C 27.9997 30.6566 26.6566 31.9998 24.9997 31.9998 ZM 19.9996 6.9999 C 19.9996 5.343 18.2089 3.9999 15.9996 3.9999 C 13.7906 3.9999 11.9996 5.343 11.9996 6.9999 L 11.9996 13.9998 C 11.9996 14.351 12.0843 14.6866 12.2321 14.9998 L 19.7672 14.9998 C 19.915 14.6866 19.9996 14.351 19.9996 13.9998 L 19.9996 6.9999 ZM 15.9996 17.9998 C 13.7906 17.9998 11.9996 19.7907 11.9996 21.9998 C 11.9996 23.4795 12.8052 24.7684 13.9997 25.4604 L 13.9997 26.9998 C 13.9997 28.1044 14.8951 28.9998 15.9996 28.9998 C 17.1044 28.9998 17.9998 28.1044 17.9998 26.9998 L 17.9998 25.4603 C 19.1942 24.7683 19.9996 23.4794 19.9996 21.9998 C 19.9996 19.7907 18.2089 17.9998 15.9996 17.9998 Z" fill="#000000"/>
	</g>
</svg>
