<?xml version="1.0" encoding="iso-8859-1"?>
<svg version="1.2" baseProfile="tiny" id="&#x421;&#x43B;&#x43E;&#x439;_1" xmlns="http://www.w3.org/2000/svg" x="0px" y="0px" width="17px" height="19px" viewBox="0 0 17 19" xml:space="preserve">
<path fill="#FFFFFF" d="M6.909,3.659c-2.346,0-4.25,1.903-4.25,4.25c0,2.347,1.903,4.248,4.25,4.248c2.347,0,4.249-1.9,4.249-4.248
	C11.157,5.562,9.254,3.659,6.909,3.659z M16.831,16.617l-1.214,1.215c-0.222,0.223-0.586,0.223-0.809,0l-2.429-2.428
	c-0.224-0.223-0.224-0.588,0-0.813l0.067-0.064l-1.144-1.141c-0.029-0.029-0.044-0.066-0.066-0.098
	c-1.185,0.953-2.689,1.527-4.329,1.527C3.093,14.816,0,11.725,0,7.909S3.093,1,6.909,1s6.909,3.092,6.909,6.909
	c0,1.641-0.573,3.144-1.528,4.328c0.031,0.021,0.068,0.039,0.1,0.068l1.14,1.141l0.066-0.066c0.223-0.223,0.587-0.223,0.811,0
	l2.428,2.43C17.056,16.029,17.056,16.395,16.831,16.617z"/>
</svg>
