<?xml version="1.0" encoding="utf-8"?>
<!-- Generated by IcoMoon.io -->
<!DOCTYPE svg PUBLIC "-//W3C//DTD SVG 1.1//EN" "http://www.w3.org/Graphics/SVG/1.1/DTD/svg11.dtd">
<svg version="1.1" xmlns="http://www.w3.org/2000/svg" xmlns:xlink="http://www.w3.org/1999/xlink" width="29" height="32" viewBox="0 0 29 32">
<path fill="#000000" d="M14.316 16.598c-5.11 0-8.345-5.078-8.345-7.114 0-0.45-0.064-1.942 0-2.37 0.593-4.15 4.251-7.114 8.345-7.114 4.042 0 7.69 3.040 8.357 7.114 0.074 0.48 0 1.866 0 2.37 0 2.036-3.245 7.114-8.357 7.114zM14.316 32c-7.19 0-14.316-1.184-14.316-1.184l3.584-9.484c0 0 5.79-2.368 10.73-2.368 5.314 0 10.742 2.368 10.742 2.368l3.576 9.484c0 0-7.192 1.184-14.316 1.184z"></path>
</svg>
