<svg xmlns="http://www.w3.org/2000/svg" viewBox="0 0 267.8 16.13">
    <path d="M9,0.79L2.85,6.93Q1.29,7.51,2,6.36L7.62,0.79H9ZM12.82,12.7L0.89,16.21,0.54,15.15,11.38,12Q13.18,10.74,12.82,12.7ZM2.12,6.23l10.66,5.35,0,1.07-0.07.09L1.32,7ZM7.21,5.9A1.4,1.4,0,0,1,8.51,4.55a1.57,1.57,0,0,1,1.3.52,1.7,1.7,0,0,1,.24,1.28,1.49,1.49,0,0,1-1.54,1A1.4,1.4,0,0,1,7.21,5.9ZM20.53,9.42l1.85-2.5,1.73,2.45-0.92.83L22.42,9,20.7,11.13l-2-1.64L16.54,13a4,4,0,0,0,3.61,1.65,5.17,5.17,0,0,0,2.07-.4A5,5,0,0,0,23.9,13a5,5,0,0,0,.81-1.16,5.94,5.94,0,0,0,.5-1.37,6.82,6.82,0,0,0,.17-1.54,4.44,4.44,0,0,0-1.33-3.36,5.8,5.8,0,0,0-2.31-1.34A6.05,6.05,0,0,0,19.6,4a4.31,4.31,0,0,0-1.94.69,4.71,4.71,0,0,0-1.51,1.68,6.8,6.8,0,0,0-.8,2.23q-0.23.87-.78,0.75a0.79,0.79,0,0,1-.66-0.63,9,9,0,0,1,.2-1.55,6.77,6.77,0,0,1,1-1.87,6.52,6.52,0,0,1,1.39-1.45,5.65,5.65,0,0,1,1.32-.74,8.24,8.24,0,0,1,1.33-.37,8,8,0,0,1,2,0,7.6,7.6,0,0,1,1.95.47,9.13,9.13,0,0,1,1.13.64,8.2,8.2,0,0,1,1.42,1.33A5.88,5.88,0,0,1,26.72,9a6.56,6.56,0,0,1-1.9,4.82,6.41,6.41,0,0,1-4.77,1.95A5.66,5.66,0,0,1,15,13l3.52-5.55Zm-5.84-1.8a1,1,0,0,1,.71.32,1.1,1.1,0,0,1,.3.79,1.15,1.15,0,0,1-.3.82,1,1,0,0,1-1.47,0,1.14,1.14,0,0,1-.29-0.81A1.09,1.09,0,0,1,14,7.89,1,1,0,0,1,14.68,7.62Zm20,2.09,4.72,3.16-0.73.7-4.5-3-4.44,2.67-0.64-.64L33.51,9.7V5.82h1.13V9.71ZM32.9,5.29A1.12,1.12,0,0,1,34,4.21a1.28,1.28,0,0,1,1,.42,1.36,1.36,0,0,1,.19,1,1.2,1.2,0,0,1-1.23.8A1.13,1.13,0,0,1,32.9,5.29Zm-4.34,7.52a1.12,1.12,0,0,1,1-1.08,1.26,1.26,0,0,1,1,.42,1.38,1.38,0,0,1,.2,1,1.21,1.21,0,0,1-1.24.81A1.12,1.12,0,0,1,28.56,12.81Zm9,0a1.12,1.12,0,0,1,1-1.08,1.26,1.26,0,0,1,1,.42,1.36,1.36,0,0,1,.19,1,1.2,1.2,0,0,1-1.23.81A1.12,1.12,0,0,1,37.54,12.77Zm9.56,1.88a1,1,0,0,1,.73.32,1.24,1.24,0,0,1,0,1.61,1,1,0,0,1-1.47,0,1.15,1.15,0,0,1-.29-0.81A1.07,1.07,0,0,1,46.42,15,0.93,0.93,0,0,1,47.11,14.66Zm0-13a1,1,0,0,1,.73.32,1.15,1.15,0,0,1,.3.81,1.14,1.14,0,0,1-.3.8,1,1,0,0,1-1.47,0,1.15,1.15,0,0,1-.29-0.81,1.07,1.07,0,0,1,.34-0.84A0.93,0.93,0,0,1,47.11,1.63ZM47.73,2q-0.1,6,4.39,6.9-4.68,1.56-4.35,7.66l-1,0q0-5.85,3.15-7.56Q46.75,8,46.8,2h0.93ZM47.5,2Q47,7.73,44.24,9q3.13,1.29,3.26,7.49l-1,0Q46.65,10.42,42.18,9q4-1.4,4.4-7H47.5ZM62.85,13.78V6.84h7.27v6.94H62.85Zm1-1h5.27v-5H63.83v5Zm2.55-3.59a1,1,0,0,1,.75.31,1,1,0,0,1,.31.77,1.08,1.08,0,0,1-.31.8,1.06,1.06,0,0,1-.77.31,1.07,1.07,0,0,1-.77-0.3,1.06,1.06,0,0,1-.31-0.8,1,1,0,0,1,.37-0.8A1.06,1.06,0,0,1,66.38,9.21Zm5.55,6.95L69.26,13.5a0.79,0.79,0,0,1,.52-0.8l2.87,2.87A0.62,0.62,0,0,1,71.94,16.16ZM63.06,7.8L60.39,5.13a0.85,0.85,0,0,1,.78-0.59l2.65,2.64Q63.75,8,63.06,7.8Zm19.87,4.55L76.82,9.84V8.77l6.12,2.66v0.91Zm0-4.89-6.11-2,0-1.13L83,6.54V7.45Zm0,0L76.8,9.77l0-1L83,6.54V7.48Zm0.16,8.16L77,14.42V13.37l6.16,1.09v1.18Zm-0.2-3.3-6,2V13.37l6-1.91Zm0-7.8-6.12.84,0-1L83,3.49ZM97.24,2.66a5.06,5.06,0,0,1,2.13,1.86,8.64,8.64,0,0,1,2-1.9l1.33,1.33a4.48,4.48,0,0,0-2.45,1.25,5.18,5.18,0,0,1,1.91,3.88,5.14,5.14,0,0,1-2,3.95,4.47,4.47,0,0,0,2.12,1.12l-1,1.06a6.39,6.39,0,0,1-2-1.62,9.82,9.82,0,0,1-1.87,1.6l-1.19-1.07a8.88,8.88,0,0,0,2.06-1.2,5.39,5.39,0,0,1-1.8-3.76A4.75,4.75,0,0,1,98.49,5.1,5,5,0,0,0,96,3.88ZM99.33,6a3.89,3.89,0,0,0-1.08,1,4.46,4.46,0,0,0-.67,1.41,3.56,3.56,0,0,0,.13,2.05,3.78,3.78,0,0,0,1.58,2,4,4,0,0,0,1.53-1.89A3.51,3.51,0,0,0,101,8.61,4.9,4.9,0,0,0,100.36,7,3.4,3.4,0,0,0,99.33,6Zm0,2.09a1,1,0,0,1,.71.32,1.1,1.1,0,0,1,.3.78,1.17,1.17,0,0,1-.3.82,1,1,0,0,1-1.47,0,1.15,1.15,0,0,1-.29-0.82,1.09,1.09,0,0,1,.34-0.84A1,1,0,0,1,99.29,8Zm10.07-3.12v9.16a0.79,0.79,0,0,1,.33.22,1,1,0,0,1,.25.54,1,1,0,0,1-.23.75A1,1,0,0,1,109,16a1.09,1.09,0,0,1-.67-0.12,1.15,1.15,0,0,1-.44-0.5,1,1,0,0,1-.05-0.73,0.94,0.94,0,0,1,.55-0.59V4.93a3.8,3.8,0,0,1,.38-2,2.94,2.94,0,0,1,.92-1,3.34,3.34,0,0,1,1.18-.45A9.27,9.27,0,0,1,112,1.36q0.49,0,1.84,0V2.2q-1.49,0-2,0a5.23,5.23,0,0,0-1,.2,2.09,2.09,0,0,0-.83.45,2.24,2.24,0,0,0-.51.68A3.78,3.78,0,0,0,109.36,4.91Zm-0.76,5.87a6.23,6.23,0,0,0,3.46-.73,9.78,9.78,0,0,0,2.14-1.91q1-1.14,1-.43a8,8,0,0,1-2.67,3,7.41,7.41,0,0,1-3.66,1.19,6.33,6.33,0,0,1-2.6-.55,6.71,6.71,0,0,1-2.46-1.69,3.56,3.56,0,0,1-1.06-1.74q0.16-.69.44-0.2a4.77,4.77,0,0,0,.61.85q0.33,0.36.75,0.75a7,7,0,0,0,1.55,1A5.34,5.34,0,0,0,108.6,10.79Zm14.3-1.37,1.85-2.5,1.73,2.45-0.92.83L124.79,9l-1.72,2.09-2-1.64L118.92,13a4,4,0,0,0,3.61,1.65,5.17,5.17,0,0,0,2.07-.4A5,5,0,0,0,126.28,13a5,5,0,0,0,.81-1.16,5.94,5.94,0,0,0,.5-1.37,6.82,6.82,0,0,0,.17-1.54,4.44,4.44,0,0,0-1.33-3.36,5.8,5.8,0,0,0-2.31-1.34A6.05,6.05,0,0,0,122,4a4.31,4.31,0,0,0-1.94.69,4.71,4.71,0,0,0-1.51,1.68,6.8,6.8,0,0,0-.8,2.23q-0.23.87-.78,0.75a0.79,0.79,0,0,1-.66-0.63,9,9,0,0,1,.2-1.55,6.77,6.77,0,0,1,1-1.87,6.52,6.52,0,0,1,1.39-1.45,5.65,5.65,0,0,1,1.32-.74,8.24,8.24,0,0,1,1.33-.37,8,8,0,0,1,2,0,7.6,7.6,0,0,1,1.95.47,9.13,9.13,0,0,1,1.13.64A8.2,8.2,0,0,1,128,5.18,5.88,5.88,0,0,1,129.1,9a6.56,6.56,0,0,1-1.9,4.82,6.41,6.41,0,0,1-4.77,1.95A5.66,5.66,0,0,1,117.37,13l3.52-5.55Zm-5.84-1.8a1,1,0,0,1,.71.32,1.1,1.1,0,0,1,.3.79,1.15,1.15,0,0,1-.3.82,1,1,0,0,1-1.47,0A1.14,1.14,0,0,1,116,8.73a1.09,1.09,0,0,1,.35-0.84A1,1,0,0,1,117.06,7.62Zm19.47-4.7a6,6,0,0,1,4.36,1.79,6,6,0,0,1,1.84,4.5,6.3,6.3,0,0,1-6.35,6.42,6.3,6.3,0,0,1-4.33-1.7,7.23,7.23,0,0,1-2.16-5.09,6,6,0,0,1,2.26-4.55A7.1,7.1,0,0,1,136.53,2.92ZM136.43,4A5.69,5.69,0,0,0,133,5.21a4.65,4.65,0,0,0-1.89,3.91,5,5,0,0,0,1.66,3.77,4.8,4.8,0,0,0,3.45,1.27A5.71,5.71,0,0,0,140,12.89a4.77,4.77,0,0,0,1.64-3.61,5.15,5.15,0,0,0-1.74-3.95A4.79,4.79,0,0,0,136.43,4Zm3.33,4a1,1,0,0,1,.71.32,1.1,1.1,0,0,1,.3.78,1.15,1.15,0,0,1-.3.82,1,1,0,0,1-1.47,0,1.14,1.14,0,0,1-.29-0.82,1.09,1.09,0,0,1,.34-0.84A1,1,0,0,1,139.76,8Zm-6.83,0a0.94,0.94,0,0,1,.71.32,1.1,1.1,0,0,1,.3.79,1.16,1.16,0,0,1-.3.82,1,1,0,0,1-1.46,0,1.15,1.15,0,0,1-.29-0.82,1.09,1.09,0,0,1,.34-0.84A1,1,0,0,1,132.93,8Zm18.54,4.37-6.12-2.51V8.77l6.12,2.66v0.91Zm0-4.89-6.11-2,0-1.13,6.14,2.2V7.45Zm0,0-6.17,2.28,0-1,6.16-2.24V7.48Zm0.16,8.16-6.16-1.22V13.37l6.16,1.09v1.18Zm-0.2-3.3-6,2V13.37l6-1.91Zm0-7.8-6.12.84,0-1,6.12-.85Zm11.78,9.25V6.84h7.27v6.94h-7.27Zm1-1h5.27v-5h-5.27v5Zm2.55-3.59a1,1,0,0,1,.75.31,1,1,0,0,1,.31.77,1.08,1.08,0,0,1-.31.8,1.06,1.06,0,0,1-.77.31,1.07,1.07,0,0,1-.77-0.3,1.06,1.06,0,0,1-.31-0.8,1,1,0,0,1,.37-0.8A1.06,1.06,0,0,1,166.81,9.21Zm5.55,6.95L169.7,13.5a0.79,0.79,0,0,1,.52-0.8l2.87,2.87A0.62,0.62,0,0,1,172.37,16.16ZM163.49,7.8l-2.67-2.66a0.85,0.85,0,0,1,.78-0.59l2.65,2.64Q164.18,8,163.49,7.8Zm18.86,6.86a1,1,0,0,1,.73.32,1.24,1.24,0,0,1,0,1.61,1,1,0,0,1-1.47,0,1.15,1.15,0,0,1-.29-0.81,1.07,1.07,0,0,1,.34-0.84A0.93,0.93,0,0,1,182.35,14.66Zm0-13a1,1,0,0,1,.73.32,1.15,1.15,0,0,1,.3.81,1.14,1.14,0,0,1-.3.8,1,1,0,0,1-1.47,0,1.15,1.15,0,0,1-.29-0.81,1.07,1.07,0,0,1,.34-0.84A0.93,0.93,0,0,1,182.35,1.63ZM183,2q-0.1,6,4.39,6.9-4.68,1.56-4.35,7.66l-1,0q0-5.85,3.15-7.56Q182,8,182,2H183Zm-0.23,0q-0.48,5.77-3.26,7,3.13,1.29,3.26,7.49l-1,0q0.14-6.11-4.34-7.55,4-1.4,4.4-7h0.92Zm12.1,7.74,4.72,3.16-0.73.7-4.5-3-4.44,2.67-0.64-.64,4.46-2.91V5.82h1.13V9.71ZM193.1,5.29a1.12,1.12,0,0,1,1.05-1.08,1.28,1.28,0,0,1,1,.42,1.36,1.36,0,0,1,.19,1,1.2,1.2,0,0,1-1.23.8A1.13,1.13,0,0,1,193.1,5.29Zm-4.34,7.52a1.12,1.12,0,0,1,1-1.08,1.26,1.26,0,0,1,1,.42,1.38,1.38,0,0,1,.2,1,1.21,1.21,0,0,1-1.24.81A1.12,1.12,0,0,1,188.76,12.81Zm9,0a1.12,1.12,0,0,1,1-1.08,1.26,1.26,0,0,1,1,.42,1.36,1.36,0,0,1,.19,1,1.2,1.2,0,0,1-1.23.81A1.12,1.12,0,0,1,197.74,12.77Zm9.27-.39a6.23,6.23,0,0,0,3.46-.73,9.7,9.7,0,0,0,2.14-1.91q1-1.14,1-.44a8.08,8.08,0,0,1-2.66,3,7.32,7.32,0,0,1-3.66,1.18,6.2,6.2,0,0,1-2.59-.54,6.71,6.71,0,0,1-2.46-1.69,3.63,3.63,0,0,1-1.07-1.75q0.16-.69,1.2.55a6.83,6.83,0,0,0,2.16,1.8A5.34,5.34,0,0,0,207,12.38Zm0.27-8.84a1,1,0,0,1,.72.32,1.14,1.14,0,0,1,.3.81,1.13,1.13,0,0,1-.3.8,1,1,0,0,1-.74.32,1,1,0,0,1-.73-0.32,1.14,1.14,0,0,1-.29-0.81,1.07,1.07,0,0,1,.34-0.84A1,1,0,0,1,207.28,3.55Zm0.48,2.06V13.1q0,2.29,0,2.63a1,1,0,0,1-.13.46,0.41,0.41,0,0,1-.34.13,0.38,0.38,0,0,1-.34-0.15,0.86,0.86,0,0,1-.12-0.37q0-.22,0-0.86V5.63Zm15.08,5.3a6.8,6.8,0,0,1-3.43,0l-1.33,4.71-1.05,0,1.48-5a8.78,8.78,0,0,1-1.26-.63,4.4,4.4,0,0,1-1.8-2.14,4.41,4.41,0,0,1,.78-4.23q1.59-1.55,2.93-.51a2.77,2.77,0,0,1,1.33,2.38,8.24,8.24,0,0,1-.39,3l-0.37,1.32a7.87,7.87,0,0,0,2.74.07l-0.56-1.57q-0.75-3.61,1.21-5.07a2,2,0,0,1,3,.33,4.57,4.57,0,0,1,.82,3.8,3.78,3.78,0,0,1-1.46,2.41,10.15,10.15,0,0,1-1.64.83l1.87,5h-1.2Zm-4-1.32,0.4-1.34q0.66-3-.21-4a1.28,1.28,0,0,0-1.87-.15,2.78,2.78,0,0,0-1,1.91,3.9,3.9,0,0,0,.29,1.75,4.24,4.24,0,0,0,2,1.73Zm4.67,0a4.5,4.5,0,0,0,2-1.06,3.18,3.18,0,0,0,.71-1.71V6a2.58,2.58,0,0,0-.62-1.86,1.13,1.13,0,0,0-1.63-.23,2.57,2.57,0,0,0-1,2.14,7,7,0,0,0,.44,3Zm19,2.77a6.23,6.23,0,0,0,3.46-.73A9.7,9.7,0,0,0,248,9.74q1-1.14,1-.44a8.08,8.08,0,0,1-2.66,3,7.32,7.32,0,0,1-3.66,1.18,6.2,6.2,0,0,1-2.59-.54,6.71,6.71,0,0,1-2.46-1.69,3.63,3.63,0,0,1-1.07-1.75q0.16-.69,1.2.55a6.83,6.83,0,0,0,2.16,1.8A5.34,5.34,0,0,0,242.44,12.38Zm0.27-8.84a1,1,0,0,1,.72.32,1.14,1.14,0,0,1,.3.81,1.13,1.13,0,0,1-.3.8,1,1,0,0,1-.74.32A1,1,0,0,1,242,5.49a1.14,1.14,0,0,1-.29-0.81A1.07,1.07,0,0,1,242,3.84,1,1,0,0,1,242.71,3.55Zm0.48,2.06V13.1q0,2.29,0,2.63a1,1,0,0,1-.13.46,0.41,0.41,0,0,1-.34.13,0.38,0.38,0,0,1-.34-0.15,0.86,0.86,0,0,1-.12-0.37q0-.22,0-0.86V5.63Zm11-3a5.06,5.06,0,0,1,2.13,1.86,8.64,8.64,0,0,1,2-1.9l1.33,1.33a4.48,4.48,0,0,0-2.45,1.25,5.18,5.18,0,0,1,1.91,3.88,5.14,5.14,0,0,1-2,3.95,4.47,4.47,0,0,0,2.12,1.12l-1,1.06a6.39,6.39,0,0,1-2-1.62,9.82,9.82,0,0,1-1.87,1.6l-1.19-1.07a8.88,8.88,0,0,0,2.06-1.2,5.39,5.39,0,0,1-1.8-3.76,4.75,4.75,0,0,1,2.05-4.05A5,5,0,0,0,253,3.88ZM256.28,6a3.89,3.89,0,0,0-1.08,1,4.46,4.46,0,0,0-.67,1.41,3.56,3.56,0,0,0,.13,2.05,3.78,3.78,0,0,0,1.58,2,4,4,0,0,0,1.53-1.89,3.51,3.51,0,0,0,.18-1.91A4.9,4.9,0,0,0,257.31,7,3.4,3.4,0,0,0,256.28,6Zm0,2.09a1,1,0,0,1,.71.32,1.1,1.1,0,0,1,.3.78,1.17,1.17,0,0,1-.3.82,1,1,0,0,1-1.47,0,1.15,1.15,0,0,1-.29-0.82,1.09,1.09,0,0,1,.34-0.84A1,1,0,0,1,256.24,8Zm6.63-5.38A5.06,5.06,0,0,1,265,4.52a8.64,8.64,0,0,1,2-1.9l1.33,1.33A4.48,4.48,0,0,0,265.9,5.2a5.18,5.18,0,0,1,1.91,3.88,5.14,5.14,0,0,1-2,3.95A4.47,4.47,0,0,0,268,14.14l-1,1.06a6.39,6.39,0,0,1-2-1.62,9.82,9.82,0,0,1-1.87,1.6l-1.19-1.07a8.88,8.88,0,0,0,2.06-1.2,5.39,5.39,0,0,1-1.8-3.76,4.75,4.75,0,0,1,2.05-4.05,5,5,0,0,0-2.48-1.22ZM265,6a3.89,3.89,0,0,0-1.08,1,4.46,4.46,0,0,0-.67,1.41,3.56,3.56,0,0,0,.13,2.05,3.78,3.78,0,0,0,1.58,2,4,4,0,0,0,1.53-1.89,3.51,3.51,0,0,0,.18-1.91A4.9,4.9,0,0,0,266,7,3.4,3.4,0,0,0,265,6Zm0,2.09a1,1,0,0,1,.71.32,1.1,1.1,0,0,1,.3.78,1.17,1.17,0,0,1-.3.82,1,1,0,0,1-1.47,0,1.15,1.15,0,0,1-.29-0.82,1.09,1.09,0,0,1,.34-0.84A1,1,0,0,1,264.93,8Z" transform="translate(-0.54 -0.79)" fill="#666"/>
</svg>
