<svg xmlns="http://www.w3.org/2000/svg" viewBox="0 0 255.08 20.38">
    <path d="M11.4,20.14a15.26,15.26,0,0,1-6.92,0,1.55,1.55,0,0,1,1-.69,1.11,1.11,0,0,0,.89-0.84q0-4-2.7-5.77Q1.81,14,1.78,18.22q-1.35-1.75-.65-4.9,0.65-3,2.2-3.94a2.81,2.81,0,0,1,1.5,1.38,14.31,14.31,0,0,1,.8,2.08Q6.3,4.55,10.24.54,7.67,7.91,8.32,12.46a13.33,13.33,0,0,0,1.54,4.25A17,17,0,0,1,11.4,20.14Zm6.29-3.24a6,6,0,0,1-.46-1,1.45,1.45,0,0,0-.61-0.81,38.5,38.5,0,0,0,1.57-7q0.21-1.47.48-3.79,0.4-3.54.44-3.83a36.34,36.34,0,0,1,.35,8.27q-0.36,7.66-.35,8.46a2.6,2.6,0,0,0,2.35-1.1,11,11,0,0,1,.79-0.85A0.7,0.7,0,0,1,23,15.13v5q-1.26,0-4.19.25a25.3,25.3,0,0,1-4.36.1,8.4,8.4,0,0,1,1.06-2.74A1.57,1.57,0,0,1,17.68,16.9ZM28,5.24a12.6,12.6,0,0,0-1,4.22,14.63,14.63,0,0,0,.43,5,7.34,7.34,0,0,0,2.32,3.93,5.85,5.85,0,0,0,4.75,1.12,1,1,0,0,0-.59-1,4.64,4.64,0,0,1-1-.58,4,4,0,0,0,2.59-2.51,9.85,9.85,0,0,0,.51-4.21,15.82,15.82,0,0,0-2.32-7.89q-2,1.09-1.92,4.61-0.92-.84-0.9-3.64t0.9-3.66A8.39,8.39,0,0,1,35.47,4a15.39,15.39,0,0,1,2.05,5.36,17.57,17.57,0,0,1,.16,6,11.92,11.92,0,0,1-2,5.27h-10A0.67,0.67,0,0,1,25.77,20a1.56,1.56,0,0,1,.5-0.26,1.15,1.15,0,0,0,.49-0.28,0.8,0.8,0,0,0,0-.72,27.46,27.46,0,0,1-1.08-7.33Q25.76,7,28,5.24Zm16.43,8.68q-0.2.51-.57,1.29-0.45.95-.59,1.27a8.32,8.32,0,0,0-.7,3q0.61-.06,3.75,0a7.14,7.14,0,0,0,3.29-.42,3,3,0,0,1-1.26-1.33,9.39,9.39,0,0,1-.4-0.9L47.53,16a4,4,0,0,0-1.06-1.53A2.86,2.86,0,0,0,44.38,13.92ZM42.92,0.59q1.91,1.62,2.47,5.61a14.18,14.18,0,0,1-.62,7,7.13,7.13,0,0,0,2.5-.72,2.86,2.86,0,0,1,1.94-.38,8.7,8.7,0,0,0,1.05,5.15q0.31,0.62,1.1,1.88a9.75,9.75,0,0,1,.81,1.48H39.59Q45.1,10.2,42.92.59ZM57.46,0.68Q56,2.1,55.58,7.36a19.2,19.2,0,0,0,.77,8.47A3.85,3.85,0,0,0,58,14.16a3.81,3.81,0,0,1,1.67-1.66A4.16,4.16,0,0,1,62.1,14a10.33,10.33,0,0,0,2,1.88,3.87,3.87,0,0,0,1.42-3.06,11.09,11.09,0,0,0-.31-4Q66.71,10,66.8,14.14a45.33,45.33,0,0,1-.47,6.48H61.15a2.22,2.22,0,0,0,1.3-1.5A4,4,0,0,0,62.36,17a7,7,0,0,0-1-2.06A4.27,4.27,0,0,0,60,13.61a4.2,4.2,0,0,0-2,2.9,3.72,3.72,0,0,0,.57,3.74,3.07,3.07,0,0,1-2.18.42,23,23,0,0,0-2.63,0A67,67,0,0,1,53.5,9Q54.15,2.47,57.46.68ZM79.78,14.06q-2.49-.13-2.71-1.93a1,1,0,0,1,.16-0.68,0.55,0.55,0,0,1,.37.24,1.18,1.18,0,0,0,1.41.44,9.59,9.59,0,0,0,.12-3.41,9.1,9.1,0,0,0-1-3.22A5,5,0,0,0,76,3.38a4.13,4.13,0,0,0-3.15-.13A9.55,9.55,0,0,0,71,8.58,11.09,11.09,0,0,0,72.1,13.9a12,12,0,0,0,3.33,4.24,9.41,9.41,0,0,0,4.75,2.09,17,17,0,0,1-5.17.44q-4.71-.12-5.64,0A3.06,3.06,0,0,1,70.48,20a1.13,1.13,0,0,0,.82-0.92,11.83,11.83,0,0,1-2.42-5.53,16.45,16.45,0,0,1,0-6.53,8.77,8.77,0,0,1,2.68-5A5.79,5.79,0,0,1,77.08.94Q80,1.67,80.54,6.05A19.25,19.25,0,0,1,79.78,14.06ZM76.84,9a1.3,1.3,0,0,1-1.25,1.51,2.64,2.64,0,0,1-2.23-.36V9.37a1,1,0,0,1,.48-0.91,1.94,1.94,0,0,1,1.06-.26,3.08,3.08,0,0,1,1.16.22A1.45,1.45,0,0,1,76.84,9Zm10.58,4.93q-0.2.51-.57,1.29-0.45.95-.59,1.27a8.32,8.32,0,0,0-.7,3q0.61-.06,3.75,0a7.14,7.14,0,0,0,3.29-.42,3,3,0,0,1-1.26-1.33,9.39,9.39,0,0,1-.4-0.9L90.57,16a4,4,0,0,0-1.06-1.53A2.86,2.86,0,0,0,87.42,13.92ZM86,0.59q1.91,1.62,2.47,5.61a14.18,14.18,0,0,1-.62,7,7.13,7.13,0,0,0,2.5-.72,2.86,2.86,0,0,1,1.94-.38,8.7,8.7,0,0,0,1.05,5.15q0.31,0.62,1.1,1.88a9.75,9.75,0,0,1,.81,1.48H82.63Q88.13,10.2,86,.59ZM110.45,0.8q0.6,0,.58.2a1.78,1.78,0,0,1-.09.23,1.61,1.61,0,0,0-.12.31,9,9,0,0,0-2.22,2.22A18.91,18.91,0,0,0,106,8.57a10.79,10.79,0,0,0-.74,2.6,12.2,12.2,0,0,0,1.48,7.77,23.29,23.29,0,0,0,3.8-.09,1.94,1.94,0,0,0,1.76-2.13,1.75,1.75,0,0,1,.75,1.66q0,0.36,0,1.21t0,1.2H103a0.66,0.66,0,0,1,0-.6,0.92,0.92,0,0,1,.43-0.22,1.8,1.8,0,0,0,.46-0.19,0.5,0.5,0,0,0,.18-0.48,5.61,5.61,0,0,0-.66-1.74q-0.68-1.24-.82-1.59a23.78,23.78,0,0,1,.37-4.44q0-.13.7-1.67a14.64,14.64,0,0,1,.78-1.66l0.16-.35a1.23,1.23,0,0,1,.21-0.39l0.16-.35a1.48,1.48,0,0,1,.21-0.39,4.38,4.38,0,0,0,.37-0.56A4.38,4.38,0,0,1,106,5.61a12.35,12.35,0,0,0,1.61-2,14.31,14.31,0,0,1,1.73-2.11A6.1,6.1,0,0,1,110,1.15,1.29,1.29,0,0,0,110.45.8ZM127,20.14a15.26,15.26,0,0,1-6.92,0,1.55,1.55,0,0,1,1-.69,1.11,1.11,0,0,0,.89-0.84q0-4-2.7-5.77-1.89,1.18-1.92,5.38-1.35-1.75-.65-4.9,0.65-3,2.2-3.94a2.81,2.81,0,0,1,1.5,1.38,14.31,14.31,0,0,1,.8,2.08q0.67-8.29,4.62-12.3-2.58,7.37-1.92,11.92a13.33,13.33,0,0,0,1.54,4.25A17,17,0,0,1,127,20.14Zm6.29-3.24a6,6,0,0,1-.46-1,1.45,1.45,0,0,0-.61-0.81,38.5,38.5,0,0,0,1.57-7q0.21-1.47.48-3.79,0.4-3.54.44-3.83A36.34,36.34,0,0,1,135,8.8q-0.36,7.66-.35,8.46a2.6,2.6,0,0,0,2.35-1.1,11,11,0,0,1,.79-0.85,0.7,0.7,0,0,1,.77-0.18v5q-1.26,0-4.19.25a25.3,25.3,0,0,1-4.36.1,8.4,8.4,0,0,1,1.06-2.74A1.57,1.57,0,0,1,133.25,16.9ZM143.52,5.24a12.6,12.6,0,0,0-1,4.22,14.63,14.63,0,0,0,.43,5,7.34,7.34,0,0,0,2.32,3.93,5.85,5.85,0,0,0,4.75,1.12,1,1,0,0,0-.59-1,4.64,4.64,0,0,1-1-.58,4,4,0,0,0,2.59-2.51,9.85,9.85,0,0,0,.51-4.21,15.82,15.82,0,0,0-2.32-7.89q-2,1.09-1.92,4.61-0.92-.84-0.9-3.64t0.9-3.66A8.39,8.39,0,0,1,151,4a15.39,15.39,0,0,1,2.05,5.36,17.57,17.57,0,0,1,.16,6,11.92,11.92,0,0,1-2,5.27h-10a0.67,0.67,0,0,1,.12-0.65,1.56,1.56,0,0,1,.5-0.26,1.15,1.15,0,0,0,.49-0.28,0.8,0.8,0,0,0,0-.72,27.46,27.46,0,0,1-1.08-7.33Q141.33,7,143.52,5.24ZM156,0.74a0.61,0.61,0,0,1,.33.4,0.46,0.46,0,0,0,.4.34q0.07,1.11,0,3.85t0,3.93a22.9,22.9,0,0,0,.74,5.19,7.39,7.39,0,0,0,.78,1.67,2,2,0,0,0,1.45.93,4.12,4.12,0,0,1-1.36.87,1.37,1.37,0,0,0-.87,1.35,1.11,1.11,0,0,0,1,.45l0.63,0,0.56,0q1,0,3.54,0,2.71,0,3.87,0a1.61,1.61,0,0,0-1-1.44l-0.83-.37a4.5,4.5,0,0,1-.79-0.41q2.14-2,2.74-7.07,0.2-1.64.33-4.58,0.16-3.48.25-4.65a2.3,2.3,0,0,1,.85,2q0,0.4-.06,1.24t0,1.21v5.19q0,8.48-.37,10H155.66q-0.16-3.8.12-10.06Q156.08,3.84,156,.74Zm25.74,13.32q-2.49-.13-2.71-1.93a1,1,0,0,1,.16-0.68,0.55,0.55,0,0,1,.37.24,1.18,1.18,0,0,0,1.41.44,9.59,9.59,0,0,0,.12-3.41,9.1,9.1,0,0,0-1-3.22A5,5,0,0,0,178,3.38a4.13,4.13,0,0,0-3.15-.13A9.55,9.55,0,0,0,173,8.58a11.09,11.09,0,0,0,1.13,5.32,12,12,0,0,0,3.33,4.24,9.41,9.41,0,0,0,4.75,2.09,17,17,0,0,1-5.17.44q-4.71-.12-5.64,0a3.06,3.06,0,0,1,1.11-.62,1.13,1.13,0,0,0,.82-0.92,11.83,11.83,0,0,1-2.42-5.53,16.45,16.45,0,0,1,0-6.53,8.77,8.77,0,0,1,2.68-5A5.79,5.79,0,0,1,179.07.94q2.87,0.73,3.46,5.12A19.25,19.25,0,0,1,181.78,14.06ZM178.84,9a1.3,1.3,0,0,1-1.25,1.51,2.64,2.64,0,0,1-2.23-.36V9.37a1,1,0,0,1,.48-0.91,1.94,1.94,0,0,1,1.06-.26,3.08,3.08,0,0,1,1.16.22A1.45,1.45,0,0,1,178.84,9ZM185.22,12a16.22,16.22,0,0,1-.35-4.19,4.72,4.72,0,0,1,.9,1.9,5.36,5.36,0,0,0,.85,1.93,33.64,33.64,0,0,0,6.29.35,7.48,7.48,0,0,0,1.4-2.29q0.79-1.59,1-2.24a18.75,18.75,0,0,0,1.4-6.28,1.15,1.15,0,0,1,.7.69q0.39,1.63-.7,5.59A35.4,35.4,0,0,1,195,12q-0.5,1.09-1.05,2.09,0,0.08-.6.73t-0.8,1a0.72,0.72,0,0,0,0,.36,0.47,0.47,0,0,1,0,.34,2.31,2.31,0,0,1-.36.17,1,1,0,0,0-.33.18q-1.51,2.21-1.75,2.44a7.09,7.09,0,0,0,3.51.11,4.09,4.09,0,0,0,2.78-1.5q0.07-.11.44-1,0.47-1.13.61-1.44,0.4,0.23.31,2.57a9.18,9.18,0,0,1-.31,2.66H184.87a0.53,0.53,0,0,1,.1-0.6,1,1,0,0,1,.57-0.15l0.66,0a0.46,0.46,0,0,0,.42-0.27,29.16,29.16,0,0,0,4.54-4.88q-0.4-.47-3.14-0.47t-3.14.47q-0.38-.19-0.13-1.26,0.09-.35.25-0.86,0.22-.68.22-0.66h0Zm29.41-6.48A9.94,9.94,0,0,1,213.34,4a3.32,3.32,0,0,0-1.57-1.3,17.15,17.15,0,0,0,.36,7.69,12.24,12.24,0,0,0,3.14,5.68,43.49,43.49,0,0,1-8,.64,4.4,4.4,0,0,0,2.11,2.66A11,11,0,0,0,213,20.54a7,7,0,0,1-5-.7,8.36,8.36,0,0,1-3.33-3.12,5,5,0,0,1,3-2,4.59,4.59,0,0,1,4,.42,1.29,1.29,0,0,0-.68-1.21,3.53,3.53,0,0,1-1.22-1.34,10.3,10.3,0,0,1-.25-5q0.14-.95.46-2.59T210.5,2.7a3.29,3.29,0,0,0-2.62.49,8.29,8.29,0,0,0-2.16,1.74,3.93,3.93,0,0,1,1.41-2.78,5.35,5.35,0,0,1,3-1.41,3.58,3.58,0,0,1,3,.85A5.47,5.47,0,0,1,214.64,5.56Zm7.63-5a0.78,0.78,0,0,1,.63.15,1.08,1.08,0,0,0,.54.24A5,5,0,0,1,225,2.88q0.06,0.13.62,1l0.56,0.92q1.41,2.73,2.34,5.08a3.57,3.57,0,0,0,.19.33l0.24,0.42a2.79,2.79,0,0,1,.35,1.2,9.57,9.57,0,0,1-.78,3.51,4.05,4.05,0,0,1-.21.42l-0.19.36-0.17.25a5,5,0,0,0-.3.48,1.8,1.8,0,0,0-.31,1.22,2.42,2.42,0,0,0,.92,1.46,2.6,2.6,0,0,0,1.82.49,1.63,1.63,0,0,1-1.31.47l-0.75,0a5.17,5.17,0,0,0-.67,0q-1.33,0-4.5,0-3.42,0-4.86,0a38.59,38.59,0,0,0,2.73-2.72,6.42,6.42,0,0,0,1.17-4.31,1.71,1.71,0,0,1,.81,1.18,3.52,3.52,0,0,1-.14,1.49,18.71,18.71,0,0,0-.67,3.18,1.88,1.88,0,0,0,2.06.87,4.25,4.25,0,0,0,1.45-1.26,6.57,6.57,0,0,0,.75-2,14.89,14.89,0,0,0,.42-1.88,20.92,20.92,0,0,0,.06-4.26,8.33,8.33,0,0,0-.84-3.54,28.69,28.69,0,0,1-1.17-2.73A3.55,3.55,0,0,0,224.35,4L224,3.42a1.47,1.47,0,0,1-.2-0.54,1.54,1.54,0,0,0-1.36,1,5.92,5.92,0,0,0-.31.87q-0.2.67-.27,0.89a1,1,0,0,1-.28-0.88,5.2,5.2,0,0,1,.32-1.11A5.45,5.45,0,0,0,222.26.54Zm21.88,0.36a7.06,7.06,0,0,0-4.21,3.35,13.06,13.06,0,0,0-2,5.83,10,10,0,0,0,.94,5.8,6,6,0,0,0,4.54,3.23q-0.52.1-6.14,0.46-3.75.25-5.28,1.33a5.94,5.94,0,0,1,.4-3.16,20.31,20.31,0,0,1,1.38-2.2,1,1,0,0,1,.4,1.21,9.25,9.25,0,0,0,0,1.65H237a2.92,2.92,0,0,0,.2-3.62,5.48,5.48,0,0,0-2.7-2.45,33.11,33.11,0,0,0,1.59-3.66A31.1,31.1,0,0,1,237.7,5a8.49,8.49,0,0,1,2.41-2.86A7.21,7.21,0,0,1,244.14.91Zm11.19,4.66A9.94,9.94,0,0,1,254,4a3.32,3.32,0,0,0-1.57-1.3,17.15,17.15,0,0,0,.36,7.69A12.24,12.24,0,0,0,256,16.07a43.49,43.49,0,0,1-8,.64,4.4,4.4,0,0,0,2.11,2.66,11,11,0,0,0,3.62,1.16,7,7,0,0,1-5-.7,8.36,8.36,0,0,1-3.33-3.12,5,5,0,0,1,3-2,4.59,4.59,0,0,1,4,.42,1.29,1.29,0,0,0-.68-1.21,3.53,3.53,0,0,1-1.22-1.34,10.3,10.3,0,0,1-.25-5q0.14-.95.46-2.59t0.43-2.31a3.29,3.29,0,0,0-2.62.49,8.29,8.29,0,0,0-2.16,1.74,3.93,3.93,0,0,1,1.41-2.78,5.35,5.35,0,0,1,3-1.41,3.58,3.58,0,0,1,3,.85A5.47,5.47,0,0,1,255.33,5.56Z" transform="translate(-0.89 -0.53)" fill="#666"/>
</svg>
